<svg width="25" height="25" viewBox="0 0 25 25" fill="none" xmlns="http://www.w3.org/2000/svg">
<path d="M3.97095 6.41321V20.4132C3.97095 20.9436 4.18166 21.4523 4.55673 21.8274C4.93181 22.2025 5.44051 22.4132 5.97095 22.4132H19.9709C20.5014 22.4132 21.0101 22.2025 21.3852 21.8274C21.7602 21.4523 21.9709 20.9436 21.9709 20.4132V6.41321C21.9709 5.88278 21.7602 5.37407 21.3852 4.99899C21.0101 4.62392 20.5014 4.41321 19.9709 4.41321H17.9709V2.41321H15.9709V4.41321H9.97095V2.41321H7.97095V4.41321H5.97095C5.44051 4.41321 4.93181 4.62392 4.55673 4.99899C4.18166 5.37407 3.97095 5.88278 3.97095 6.41321ZM19.9709 20.4132H5.97095V8.41321H19.9709V20.4132Z" fill="black"/>
</svg>
