<svg width="50" height="50" viewBox="0 0 50 50" fill="none" xmlns="http://www.w3.org/2000/svg">
<g clip-path="url(#clip0_1068_2719)">
<path d="M24.9908 49.9908C38.789 49.9908 50 38.7798 50 25C50 11.2202 38.789 -0.00918579 24.9908 -0.00918579C11.1927 -0.00918579 0 11.2018 0 25C0 38.7982 11.211 50.0092 24.9908 50.0092V49.9908ZM24.9908 1.34861C38.0367 1.34861 48.6422 11.9541 48.6422 25C48.6422 38.0459 38.0367 48.633 25.0092 48.633C11.9817 48.633 1.37615 38.0275 1.37615 25C1.37615 11.9725 11.9633 1.34861 24.9908 1.34861Z" fill="#464138"/>
<path d="M24.9908 49.9908C38.789 49.9908 50 38.7798 50 25C50 11.2202 38.789 -0.00918579 24.9908 -0.00918579C11.1927 -0.00918579 0 11.2018 0 25C0 38.7982 11.211 50.0092 24.9908 50.0092V49.9908ZM24.9908 1.34861C38.0367 1.34861 48.6422 11.9541 48.6422 25C48.6422 38.0459 38.0367 48.633 25.0092 48.633C11.9817 48.633 1.37615 38.0275 1.37615 25C1.37615 11.9725 11.9633 1.34861 24.9908 1.34861Z" fill="black" fill-opacity="0.2"/>
<path d="M17.0828 20.2182C17.2479 20.053 17.5232 20.053 17.6883 20.2182C17.8534 20.3834 17.8534 20.6588 17.6883 20.824L13.9452 24.5685H37.1011C37.3397 24.5685 37.5415 24.7704 37.5415 25.009C37.5415 25.2476 37.3397 25.4495 37.1011 25.4495H13.9452L17.8351 29.3409C18.0002 29.506 18.0002 29.7814 17.8351 29.9466C17.7433 30.0384 17.6332 30.0751 17.5232 30.0751C17.4131 30.0751 17.303 30.0384 17.2112 29.9466L12.5874 25.321C12.4222 25.1558 12.4222 24.8805 12.5874 24.7153L17.0644 20.2366L17.0828 20.2182Z" fill="#464138"/>
<path d="M17.0828 20.2182C17.2479 20.053 17.5232 20.053 17.6883 20.2182C17.8534 20.3834 17.8534 20.6588 17.6883 20.824L13.9452 24.5685H37.1011C37.3397 24.5685 37.5415 24.7704 37.5415 25.009C37.5415 25.2476 37.3397 25.4495 37.1011 25.4495H13.9452L17.8351 29.3409C18.0002 29.506 18.0002 29.7814 17.8351 29.9466C17.7433 30.0384 17.6332 30.0751 17.5232 30.0751C17.4131 30.0751 17.303 30.0384 17.2112 29.9466L12.5874 25.321C12.4222 25.1558 12.4222 24.8805 12.5874 24.7153L17.0644 20.2366L17.0828 20.2182Z" fill="black" fill-opacity="0.2"/>
<path d="M17.5229 30.5158C17.7615 30.5158 17.9816 30.424 18.1468 30.2588C18.4954 29.91 18.4954 29.341 18.1468 28.9923L15.0459 25.8902H37.1009C37.5963 25.8902 38 25.4864 38 24.9908C38 24.4952 37.5963 24.0914 37.1009 24.0914H15.0459L18 21.1362C18.3486 20.7874 18.3486 20.2184 18 19.8697C17.6514 19.5209 17.0826 19.5209 16.7339 19.8697L12.2569 24.3484C11.9083 24.6971 11.9083 25.2661 12.2569 25.6149L16.8807 30.2404C17.0459 30.4056 17.2661 30.4974 17.5046 30.4974L17.5229 30.5158Z" fill="#464138"/>
<path d="M17.5229 30.5158C17.7615 30.5158 17.9816 30.424 18.1468 30.2588C18.4954 29.91 18.4954 29.341 18.1468 28.9923L15.0459 25.8902H37.1009C37.5963 25.8902 38 25.4864 38 24.9908C38 24.4952 37.5963 24.0914 37.1009 24.0914H15.0459L18 21.1362C18.3486 20.7874 18.3486 20.2184 18 19.8697C17.6514 19.5209 17.0826 19.5209 16.7339 19.8697L12.2569 24.3484C11.9083 24.6971 11.9083 25.2661 12.2569 25.6149L16.8807 30.2404C17.0459 30.4056 17.2661 30.4974 17.5046 30.4974L17.5229 30.5158Z" fill="black" fill-opacity="0.2"/>
</g>
<defs>
<clipPath id="clip0_1068_2719">
<rect width="50" height="50.0183" fill="white" transform="matrix(-1 0 0 1 50 -0.00918579)"/>
</clipPath>
</defs>
</svg>
