<svg width="24" height="24" viewBox="0 0 24 24" fill="none" xmlns="http://www.w3.org/2000/svg">
<path d="M0 12C0 5.37258 5.37258 0 12 0C18.6274 0 24 5.37258 24 12C24 18.6274 18.6274 24 12 24C5.37258 24 0 18.6274 0 12Z" fill="#F3E8FF"/>
<path d="M11.44 18.9639C10.6233 18.8073 9.83 18.5363 9.06 18.151C8.29 17.7656 7.60458 17.2297 7.00375 16.5432C6.40292 15.8568 5.91875 15.0077 5.55125 13.9961C5.18375 12.9845 5 11.7802 5 10.3832V10.2387C5 10.0701 5.0525 9.93161 5.1575 9.82323C5.2625 9.71484 5.39667 9.66065 5.56 9.66065H5.7C6.295 9.66065 6.9075 9.73892 7.5375 9.89548C8.1675 10.052 8.75667 10.2869 9.305 10.6C9.43333 9.70882 9.69 8.79355 10.075 7.85419C10.46 6.91484 10.9208 6.06581 11.4575 5.3071C11.5975 5.10237 11.7783 5 12 5C12.2217 5 12.4025 5.10237 12.5425 5.3071C13.0792 6.06581 13.54 6.91484 13.925 7.85419C14.31 8.79355 14.5667 9.70882 14.695 10.6C15.2433 10.2869 15.8325 10.052 16.4625 9.89548C17.0925 9.73892 17.705 9.66065 18.3 9.66065H18.37C18.545 9.66065 18.6938 9.72387 18.8162 9.85032C18.9388 9.97677 19 10.1303 19 10.311V10.3832C19 11.7802 18.8162 12.9845 18.4488 13.9961C18.0813 15.0077 17.5971 15.8568 16.9963 16.5432C16.3954 17.2297 15.71 17.7656 14.94 18.151C14.17 18.5363 13.3767 18.8073 12.56 18.9639C12.4083 18.988 12.2217 19 12 19C11.7783 19 11.5917 18.988 11.44 18.9639ZM11.965 17.5729C11.8367 15.5858 11.2562 14.0774 10.2238 13.0477C9.19125 12.0181 7.92833 11.3828 6.435 11.1419C6.41167 11.1419 6.41167 11.1419 6.435 11.1419C6.56333 13.1772 7.16125 14.7067 8.22875 15.7303C9.29625 16.754 10.5417 17.3682 11.965 17.5729C11.9883 17.5849 11.9883 17.588 11.965 17.5819C11.9417 17.5759 11.9417 17.5729 11.965 17.5729ZM10.635 11.431C10.8683 11.6357 11.1133 11.8796 11.37 12.1626C11.6267 12.4456 11.8367 12.7196 12 12.9845C12.175 12.7196 12.3879 12.4456 12.6388 12.1626C12.8896 11.8796 13.1317 11.6357 13.365 11.431C13.3417 10.7445 13.2104 10.028 12.9713 9.28129C12.7321 8.53462 12.4083 7.80602 12 7.09548C11.5917 7.80602 11.2679 8.53462 11.0287 9.28129C10.7896 10.028 10.6583 10.7445 10.635 11.431ZM12.77 14.5019C12.91 14.8873 13.0296 15.3088 13.1287 15.7665C13.2279 16.2241 13.3067 16.7178 13.365 17.2477C13.785 17.1032 14.2283 16.8865 14.695 16.5974C15.1617 16.3084 15.5933 15.923 15.99 15.4413C16.3867 14.9596 16.7308 14.3665 17.0225 13.6619C17.3142 12.9574 17.495 12.1174 17.565 11.1419C17.565 11.1178 17.565 11.1178 17.565 11.1419C16.4683 11.3105 15.5058 11.6869 14.6775 12.271C13.8492 12.8551 13.2133 13.5987 12.77 14.5019Z" fill="#6B21A8"/>
</svg>
