<svg width="20" height="20" viewBox="0 0 20 20" fill="none" xmlns="http://www.w3.org/2000/svg">
<path d="M0 10C0 4.47715 4.47715 0 10 0C15.5228 0 20 4.47715 20 10C20 15.5228 15.5228 20 10 20C4.47715 20 0 15.5228 0 10Z" fill="#F21734" fill-opacity="0.13"/>
<mask id="mask0_1840_159" style="mask-type:alpha" maskUnits="userSpaceOnUse" x="-2" y="-2" width="24" height="24">
<rect x="-2" y="-2" width="24" height="24" fill="#D9D9D9"/>
</mask>
<g mask="url(#mask0_1840_159)">
<path d="M9.45455 14.5L7.72273 13.075C7.06818 12.5333 6.50682 12.05 6.03864 11.625C5.57045 11.2 5.18409 10.8 4.87955 10.425C4.575 10.05 4.35227 9.6875 4.21136 9.3375C4.07045 8.9875 4 8.62083 4 8.2375C4 7.45417 4.28636 6.80208 4.85909 6.28125C5.43182 5.76042 6.14545 5.5 7 5.5C7.47273 5.5 7.92273 5.59167 8.35 5.775C8.77727 5.95833 9.14545 6.21667 9.45455 6.55C9.76364 6.21667 10.1318 5.95833 10.5591 5.775C10.9864 5.59167 11.4364 5.5 11.9091 5.5C12.6455 5.5 13.2636 5.68958 13.7636 6.06875C14.2636 6.44792 14.6045 6.925 14.7864 7.5H13.6273C13.4636 7.16667 13.2227 6.91667 12.9045 6.75C12.5864 6.58333 12.2545 6.5 11.9091 6.5C11.4455 6.5 11.0455 6.61458 10.7091 6.84375C10.3727 7.07292 10.0591 7.375 9.76818 7.75H9.14091C8.85909 7.375 8.53864 7.07292 8.17955 6.84375C7.82045 6.61458 7.42727 6.5 7 6.5C6.48182 6.5 6.03409 6.66458 5.65682 6.99375C5.27955 7.32292 5.09091 7.7375 5.09091 8.2375C5.09091 8.5125 5.15455 8.79167 5.28182 9.075C5.40909 9.35833 5.63636 9.68542 5.96364 10.0563C6.29091 10.4271 6.73636 10.8604 7.3 11.3563C7.86364 11.8521 8.58182 12.45 9.45455 13.15C9.69091 12.9583 9.96818 12.7375 10.2864 12.4875C10.6045 12.2375 10.8591 12.0292 11.05 11.8625L11.8273 12.575C11.6273 12.7417 11.3727 12.9479 11.0636 13.1937C10.7545 13.4396 10.4818 13.6583 10.2455 13.85L9.45455 14.5ZM13.2727 12.5V11H11.6364V10H13.2727V8.5H14.3636V10H16V11H14.3636V12.5H13.2727Z" fill="#F21734"/>
</g>
</svg>
