<svg width="32" height="32" viewBox="0 0 32 32" fill="none" xmlns="http://www.w3.org/2000/svg">
<path d="M13.5966 23.341L13.6064 16.9085C12.9351 16.9085 12.324 16.9025 11.7152 16.8994C11.3171 16.8972 11.2546 17.0262 11.2576 17.3757C11.2719 19.187 11.2689 20.9983 11.2614 22.8089C11.2584 23.5757 10.7662 24.0617 10.0588 24.2776C9.98507 24.3002 9.90981 24.3191 9.76758 24.3591C9.98055 24.7259 10.2372 25.0685 10.5472 25.3591C10.8038 25.6006 11.0966 25.8052 11.4187 25.9486C11.8401 26.1372 12.2992 26.2187 12.7567 26.261C13.218 26.304 13.6869 26.3312 14.1489 26.3282C14.4033 26.3267 14.6584 26.3161 14.9113 26.2935C14.9918 26.2859 15.0859 26.2693 15.1927 26.2452C15.0964 26.1825 15.0114 26.1229 14.9685 26.0935C13.9984 25.4286 13.5747 24.547 13.5951 23.3402L13.5966 23.341Z" fill="#464139"/>
<path d="M26.1639 20.4422C25.9705 20.3207 25.8019 20.1524 25.7011 19.9471C25.5574 19.6528 25.5551 19.3109 25.5536 18.9909C25.5536 18.9796 25.5536 18.9675 25.5536 18.9562C25.5431 16.6686 25.5446 14.381 25.5513 12.0935C25.5536 11.3372 26.0924 10.8512 26.7735 10.6323C26.845 10.6097 26.9195 10.5976 26.994 10.5787C26.5221 9.16742 24.3119 8.26175 22.3658 8.68138C22.5517 8.96364 22.7232 9.18477 22.8361 9.50629C23.3832 10.9561 23.2613 12.655 23.2064 14.1742C23.2019 14.289 23.1973 14.4052 23.159 14.5131C23.0626 14.7803 22.7872 14.8173 22.5381 14.8173C22.3123 14.8173 22.0866 14.8195 21.8616 14.8195C21.854 14.8195 21.8473 14.818 21.8382 14.8158C21.7758 14.7976 21.7336 14.738 21.7336 14.6724V14.1742C21.7344 12.3901 21.7622 10.6059 21.7238 8.82175C21.705 7.94024 22.0309 7.20891 23.2101 6.98552C22.7451 6.06853 22.0113 5.51155 21.0744 5.21192C19.0297 4.55909 17.5457 5.46324 16.5004 7.26325C15.4543 5.46249 13.9703 4.55909 11.9256 5.21192C10.9887 5.51155 10.2549 6.06853 9.78986 6.98552C10.9691 7.20891 11.295 7.94024 11.2762 8.82175C11.237 10.6059 11.2649 12.3901 11.2664 14.1742V14.6724C11.2664 14.738 11.2242 14.7976 11.1618 14.8158C11.1535 14.818 11.146 14.8195 11.1384 14.8195C10.9142 14.8195 10.6877 14.8173 10.4619 14.8173C10.2128 14.8173 9.93661 14.781 9.84103 14.5131C9.80265 14.4052 9.79814 14.289 9.79362 14.1742C9.73868 12.6542 9.61677 10.9561 10.1639 9.50629C10.2768 9.18553 10.4483 8.96364 10.6342 8.68138C8.68737 8.26175 6.47712 9.16742 6.00527 10.5787C6.07977 10.5976 6.15427 10.6097 6.22577 10.6323C6.90758 10.852 7.44565 11.3372 7.44791 12.0935C7.45469 14.381 7.45619 16.6686 7.44565 18.9562C7.44565 18.9675 7.44565 18.9788 7.44565 18.9909C7.44415 19.3109 7.44189 19.6535 7.29815 19.9471C7.19731 20.1524 7.02949 20.3207 6.83533 20.4422C6.70815 20.5222 6.56893 20.5841 6.4267 20.6316C6.39208 20.6437 6.00301 20.763 6 20.7539C6.47712 22.1871 8.98086 23.1901 10.6417 22.6203C9.99305 21.9041 9.79889 21.0377 9.79663 20.1079C9.79362 19.1365 9.79212 18.1645 9.79588 17.1916C9.79814 16.6731 9.93585 16.5365 10.4657 16.5365C12.478 16.5358 14.4896 16.5358 16.5004 16.5358C18.5112 16.5358 20.5228 16.5358 22.5351 16.5365C23.0641 16.5365 23.2026 16.6724 23.2049 17.1916C23.2079 18.1645 23.2071 19.1358 23.2034 20.1079C23.2011 21.0369 23.0062 21.9041 22.3583 22.6203C24.0191 23.1901 26.5229 22.1879 27 20.7539C26.997 20.763 26.6079 20.6437 26.5733 20.6316C26.4311 20.5841 26.2918 20.5222 26.1647 20.4422H26.1639ZM18.959 14.8218C18.1394 14.8127 17.3192 14.8105 16.4996 14.812C15.6801 14.8105 14.8598 14.8127 14.0403 14.8218C13.6806 14.8263 13.5978 14.7116 13.6 14.3667C13.6143 12.1855 13.6 10.0044 13.6204 7.82401C13.6226 7.62326 13.7603 7.31231 13.9108 7.25646C14.0576 7.20212 14.3533 7.3591 14.4933 7.50854C15.1638 8.22477 15.805 8.96968 16.4981 9.75157C16.4981 9.75157 16.4989 9.75082 16.5004 9.74931C16.5004 9.74931 16.5011 9.75006 16.5026 9.75157C17.1957 8.96968 17.8362 8.22477 18.5074 7.50854C18.6474 7.3591 18.9432 7.20137 19.0899 7.25646C19.2404 7.31231 19.3781 7.62326 19.3804 7.82401C19.4007 10.0052 19.3857 12.1855 19.4007 14.3667C19.403 14.7116 19.3194 14.8263 18.9605 14.8218H18.959Z" fill="#464139"/>
<path d="M21.7375 22.8089C21.73 20.9976 21.727 19.1862 21.7413 17.3757C21.7443 17.0255 21.6818 16.8972 21.2837 16.8994C20.6749 16.9025 20.0639 16.9085 19.3926 16.9085L19.4024 23.341C19.4234 24.547 18.9997 25.4286 18.0289 26.0942C17.9861 26.1237 17.901 26.1833 17.8047 26.2459C17.9123 26.2708 18.0056 26.2867 18.0861 26.2942C18.3398 26.3176 18.5941 26.3274 18.8492 26.3289C19.3113 26.332 19.7809 26.3048 20.2415 26.2618C20.699 26.2195 21.1573 26.138 21.5795 25.9493C21.9016 25.8052 22.1943 25.6006 22.451 25.3599C22.7603 25.0693 23.0169 24.7259 23.2306 24.3599C23.0884 24.3199 23.0131 24.301 22.9394 24.2784C22.232 24.0633 21.7398 23.5765 21.7368 22.8097L21.7375 22.8089Z" fill="#464139"/>
</svg>
