<svg width="20" height="20" viewBox="0 0 20 20" fill="none" xmlns="http://www.w3.org/2000/svg">
<path d="M0 10C0 4.47715 4.47715 0 10 0C15.5228 0 20 4.47715 20 10C20 15.5228 15.5228 20 10 20C4.47715 20 0 15.5228 0 10Z" fill="#DBEAFE"/>
<path d="M9.415 15C9.245 15 9.1025 14.9468 8.9875 14.8403C8.8725 14.7338 8.815 14.6019 8.815 14.4444C8.815 14.287 8.8725 14.1551 8.9875 14.0486C9.1025 13.9421 9.245 13.8889 9.415 13.8889H9.94L9.715 11.7361C9.515 11.7176 9.3125 11.7014 9.1075 11.6875C8.9025 11.6736 8.7 11.6667 8.5 11.6667H8.14C8.02 11.6667 7.9 11.6759 7.78 11.6944L8.05 12.6806C8.09 12.8287 8.065 12.9676 7.975 13.0972C7.885 13.2269 7.76 13.3102 7.6 13.3472C7.44 13.3843 7.29 13.3634 7.15 13.2847C7.01 13.206 6.92 13.0926 6.88 12.9444L6.61 11.9028C6.41 11.9491 6.21 12 6.01 12.0556C5.81 12.1111 5.61 12.1759 5.41 12.25C5.25 12.3056 5.095 12.3032 4.945 12.2431C4.795 12.1829 4.685 12.0833 4.615 11.9444C4.545 11.8056 4.54 11.6667 4.6 11.5278C4.66 11.3889 4.765 11.2917 4.915 11.2361C5.145 11.1528 5.375 11.0764 5.605 11.0069C5.835 10.9375 6.07 10.875 6.31 10.8194L5.65 8.33333C5.19 8.2963 4.8 8.12037 4.48 7.80556C4.16 7.49074 4 7.11111 4 6.66667C4 6.2037 4.175 5.81019 4.525 5.48611C4.875 5.16204 5.3 5 5.8 5C6.3 5 6.725 5.16204 7.075 5.48611C7.425 5.81019 7.6 6.2037 7.6 6.66667C7.6 6.9537 7.53 7.21528 7.39 7.45139C7.25 7.6875 7.06 7.88426 6.82 8.04167L7.495 10.6111C7.665 10.5926 7.8325 10.5787 7.9975 10.5694C8.1625 10.5602 8.33 10.5556 8.5 10.5556C8.68 10.5556 8.86 10.5602 9.04 10.5694C9.22 10.5787 9.4 10.5926 9.58 10.6111L9.445 9.36111C9.085 9.25926 8.7875 9.06482 8.5525 8.77778C8.3175 8.49074 8.2 8.15741 8.2 7.77778C8.2 7.31481 8.375 6.9213 8.725 6.59722C9.075 6.27315 9.5 6.11111 10 6.11111C10.5 6.11111 10.925 6.27315 11.275 6.59722C11.625 6.9213 11.8 7.31481 11.8 7.77778C11.8 8.12963 11.6925 8.44676 11.4775 8.72917C11.2625 9.01157 10.985 9.21296 10.645 9.33333L10.81 10.7778C11.13 10.8333 11.4525 10.9005 11.7775 10.9792C12.1025 11.0579 12.425 11.1389 12.745 11.2222L13.24 8.08333C12.98 7.93519 12.775 7.73611 12.625 7.48611C12.475 7.23611 12.4 6.96296 12.4 6.66667C12.4 6.2037 12.575 5.81019 12.925 5.48611C13.275 5.16204 13.7 5 14.2 5C14.7 5 15.125 5.16204 15.475 5.48611C15.825 5.81019 16 6.2037 16 6.66667C16 7.09259 15.8525 7.46065 15.5575 7.77083C15.2625 8.08102 14.89 8.26389 14.44 8.31944L13.93 11.5C14.08 11.5278 14.23 11.5532 14.38 11.5764C14.53 11.5995 14.68 11.6204 14.83 11.6389C15 11.6574 15.1425 11.7199 15.2575 11.8264C15.3725 11.9329 15.43 12.0648 15.43 12.2222C15.43 12.3796 15.3725 12.5139 15.2575 12.625C15.1425 12.7361 15 12.7824 14.83 12.7639L14.29 12.7083C14.11 12.6898 13.93 12.662 13.75 12.625L13.705 12.875C13.685 13.0324 13.6075 13.1528 13.4725 13.2361C13.3375 13.3194 13.185 13.3519 13.015 13.3333C12.845 13.3148 12.715 13.2454 12.625 13.125C12.535 13.0046 12.5 12.8657 12.52 12.7083L12.565 12.3472C12.295 12.2731 12.0275 12.2014 11.7625 12.1319C11.4975 12.0625 11.225 12 10.945 11.9444L11.155 13.8889H11.815C11.985 13.8889 12.1275 13.9421 12.2425 14.0486C12.3575 14.1551 12.415 14.287 12.415 14.4444C12.415 14.6019 12.3575 14.7338 12.2425 14.8403C12.1275 14.9468 11.985 15 11.815 15H9.415ZM10 8.33333C10.17 8.33333 10.3125 8.28009 10.4275 8.17361C10.5425 8.06713 10.6 7.93519 10.6 7.77778C10.6 7.62037 10.5425 7.48843 10.4275 7.38194C10.3125 7.27546 10.17 7.22222 10 7.22222C9.83 7.22222 9.6875 7.27546 9.5725 7.38194C9.4575 7.48843 9.4 7.62037 9.4 7.77778C9.4 7.93519 9.4575 8.06713 9.5725 8.17361C9.6875 8.28009 9.83 8.33333 10 8.33333ZM5.8 7.22222C5.97 7.22222 6.1125 7.16898 6.2275 7.0625C6.3425 6.95602 6.4 6.82407 6.4 6.66667C6.4 6.50926 6.3425 6.37731 6.2275 6.27083C6.1125 6.16435 5.97 6.11111 5.8 6.11111C5.63 6.11111 5.4875 6.16435 5.3725 6.27083C5.2575 6.37731 5.2 6.50926 5.2 6.66667C5.2 6.82407 5.2575 6.95602 5.3725 7.0625C5.4875 7.16898 5.63 7.22222 5.8 7.22222ZM14.2 7.22222C14.37 7.22222 14.5125 7.16898 14.6275 7.0625C14.7425 6.95602 14.8 6.82407 14.8 6.66667C14.8 6.50926 14.7425 6.37731 14.6275 6.27083C14.5125 6.16435 14.37 6.11111 14.2 6.11111C14.03 6.11111 13.8875 6.16435 13.7725 6.27083C13.6575 6.37731 13.6 6.50926 13.6 6.66667C13.6 6.82407 13.6575 6.95602 13.7725 7.0625C13.8875 7.16898 14.03 7.22222 14.2 7.22222Z" fill="#1E3A8A"/>
</svg>
