<svg width="301" height="38" viewBox="0 0 301 38" fill="none" xmlns="http://www.w3.org/2000/svg">
<path d="M27.2012 21.179C27.9095 21.1749 28.0209 21.4036 28.0156 22.0266C27.9902 25.2492 27.9954 28.4736 28.0088 31.6975L28.0078 31.6985C28.0132 33.0631 28.8886 33.9299 30.1475 34.3127C30.2787 34.353 30.4129 34.3871 30.666 34.4583C30.2857 35.1096 29.8287 35.7205 29.2783 36.2375C28.8216 36.666 28.3007 37.0298 27.7275 37.2864C26.9761 37.6222 26.1601 37.7678 25.3457 37.843C24.5261 37.9196 23.6904 37.9675 22.8682 37.9622C22.4141 37.9595 21.9612 37.9423 21.5098 37.9006C21.3665 37.8872 21.2003 37.859 21.0088 37.8147C21.1802 37.7032 21.3319 37.5966 21.4082 37.5442C23.1357 36.3595 23.8899 34.791 23.8525 32.6448L23.835 21.1956C25.0297 21.1956 26.1176 21.1843 27.2012 21.179ZM13.54 21.1956L13.5225 32.6448L13.5205 32.6428C13.4843 34.7907 14.2383 36.3598 15.9648 37.5432C16.0412 37.5956 16.1929 37.7023 16.3643 37.8137C16.1742 37.8567 16.0065 37.8862 15.8633 37.8997C15.4132 37.94 14.9586 37.9585 14.5059 37.9612C13.6836 37.9665 12.8493 37.9176 12.0283 37.8411C11.2139 37.7658 10.3966 37.6212 9.64648 37.2854C9.07334 37.0302 8.55237 36.6663 8.0957 36.2366C7.54386 35.7194 7.08707 35.1091 6.70801 34.4563C6.96105 34.3851 7.09533 34.3521 7.22656 34.3118C8.48546 33.9276 9.36077 33.0621 9.36621 31.6975C9.37961 28.475 9.3858 25.2505 9.36035 22.0266C9.35504 21.4051 9.46584 21.175 10.1738 21.179C11.2574 21.1843 12.3454 21.1956 13.54 21.1956ZM18.6895 4.02856C20.5499 0.824926 23.1909 -0.784675 26.8301 0.377197C28.4977 0.910483 29.8041 1.90233 30.6318 3.53442C28.5331 3.93201 27.9529 5.23321 27.9863 6.802C28.0546 9.97754 28.0052 13.1538 28.0039 16.3293V17.2151C28.0039 17.3319 28.0783 17.4387 28.1895 17.4709C28.2055 17.475 28.2181 17.4778 28.2314 17.4778C28.6318 17.4778 29.0338 17.4739 29.4355 17.4739C29.8788 17.4739 30.3686 17.4073 30.54 16.9319C30.6083 16.7399 30.617 16.5334 30.625 16.3293C30.7228 13.6253 30.9396 10.6012 29.9658 8.02075C29.765 7.44869 29.4596 7.05514 29.1289 6.55298C32.5926 5.80623 36.5264 7.41804 37.3662 9.92993C37.2336 9.9635 37.1008 9.98438 36.9736 10.0247C35.7615 10.4142 34.803 11.2794 34.7988 12.6252C34.7868 16.6968 34.784 20.7686 34.8027 24.8401V24.9016C34.8054 25.4711 34.8087 26.0799 35.0645 26.6038C35.2439 26.9691 35.5445 27.2684 35.8887 27.4846H35.8896C36.116 27.627 36.364 27.7379 36.6172 27.8225C36.6788 27.844 37.3716 28.0554 37.377 28.0393C36.5278 30.5916 32.0714 32.3757 29.1152 31.3616C30.2684 30.0868 30.6151 28.5434 30.6191 26.8899C30.6258 25.1597 30.6274 23.431 30.6221 21.6995C30.6181 20.7753 30.3713 20.5334 29.4297 20.5334C25.8483 20.5321 22.2682 20.5325 18.6895 20.5325C15.1105 20.5325 11.5299 20.5321 7.94824 20.5334C7.00528 20.5334 6.75988 20.7766 6.75586 21.6995C6.74916 23.431 6.75245 25.1611 6.75781 26.8899C6.76183 28.5448 7.10715 30.0868 8.26172 31.3616C5.3056 32.3758 0.849198 30.5902 0 28.0393C0.00535772 28.0554 0.698152 27.844 0.759766 27.8225C1.0128 27.7379 1.26006 27.6269 1.48633 27.4846C1.8319 27.2684 2.13106 26.9691 2.31055 26.6038C2.56636 26.0812 2.57056 25.4712 2.57324 24.9016V24.8401C2.59199 20.7686 2.5892 16.6968 2.57715 12.6252C2.57299 11.2794 1.6148 10.4155 0.401367 10.0247C0.274419 9.98451 0.142045 9.9634 0.00976562 9.92993C0.849583 7.418 4.78296 5.80614 8.24805 6.55298C7.91731 7.05518 7.612 7.45001 7.41113 8.02075C6.43737 10.6012 6.65417 13.624 6.75195 16.3293C6.75998 16.5334 6.76866 16.7399 6.83691 16.9319C7.00701 17.4087 7.49807 17.4739 7.94141 17.4739C8.3432 17.4739 8.7464 17.4778 9.14551 17.4778C9.1589 17.4778 9.17277 17.475 9.1875 17.4709C9.29852 17.4386 9.37305 17.3319 9.37305 17.2151V16.3293C9.37037 13.1538 9.32097 9.97754 9.39062 6.802C9.42401 5.23321 8.84384 3.93201 6.74512 3.53442C7.57288 1.90233 8.87929 0.910483 10.5469 0.377197C14.186 -0.784589 16.8277 0.823554 18.6895 4.02856ZM123.685 9.77856C127.35 9.77862 130.514 10.6923 132.646 12.3499L130.538 15.0178C128.692 13.6007 126.416 13.0225 123.685 12.9983C121.408 12.9741 118.628 13.3831 118.628 14.9211C118.628 16.3623 121.024 16.5061 124.355 16.7708L124.353 16.7737C129.696 17.2062 133.458 18.3356 133.458 22.0364C133.458 25.3516 130.32 27.6594 124.377 27.6594C120.135 27.6594 116.685 26.4574 114.121 24.2708L116.325 21.6506C118.387 23.5487 121.07 24.4377 124.474 24.4377C127.877 24.4377 129.601 23.7908 129.602 22.3967C129.602 21.0024 127.877 20.6177 124.02 20.2805C119.227 19.8722 114.771 18.7186 114.771 15.2102C114.771 11.7015 118.509 9.77856 123.685 9.77856ZM80.2402 9.77759C86.7818 9.77772 90.9033 13.0942 90.9033 18.717C90.9033 24.3399 86.7818 27.6564 80.2402 27.6565C73.6985 27.6565 69.5762 24.34 69.5762 18.717C69.5762 13.0941 73.6985 9.77759 80.2402 9.77759ZM96.9443 18.9094C96.9444 22.2728 98.9088 24.2921 102.526 24.2922C106.144 24.2922 108.109 22.2729 108.109 18.9094H108.112V10.3069H111.945V19.1985C111.945 24.2449 108.614 27.6564 102.528 27.6565C96.4421 27.6565 93.1106 24.245 93.1104 19.1985V10.3069H96.9443V18.9094ZM172.903 9.77759C179.445 9.77773 183.566 13.0942 183.566 18.717C183.566 24.3399 179.445 27.6564 172.903 27.6565C166.362 27.6565 162.239 24.34 162.239 18.717C162.239 13.0941 166.362 9.77759 172.903 9.77759ZM248.052 9.77759C254.593 9.77764 258.715 13.0941 258.715 18.717C258.715 24.34 254.593 27.6564 248.052 27.6565C241.51 27.6565 237.389 24.34 237.389 18.717C237.389 13.0941 241.51 9.77759 248.052 9.77759ZM272.78 10.3069C276.878 10.3069 279.969 12.2053 279.969 15.8577C279.969 18.7173 278.076 20.496 275.297 21.1448L280.473 27.1292H275.896L271.079 21.4094H265.017V27.1292H261.206V10.3069H272.78ZM51.8438 16.9143H63.2744V10.3069H67.1084V27.1272H63.2744V20.2795H51.8438V27.1272H48.0107V10.3069H51.8438V16.9143ZM153.135 13.5266H139.907V16.9866H150.954V20.2073H139.907V23.9075H153.374V27.1272H136.097V10.3069H153.135V13.5266ZM203.505 13.6223H190.373V17.5149H201.443V20.8313H190.373V27.1272H186.538V10.3069H203.505V13.6223ZM223.729 19.1985L230.821 10.3069H234.919V27.1272H231.085V15.425L223.729 24.4368H223.537L216.18 15.425V27.1272H212.467V10.3069H216.636L223.729 19.1985ZM300.098 13.5266H286.871V16.9866H297.917V20.2073H286.871V23.9075H300.338V27.1272H283.061V10.3069H300.098V13.5266ZM80.2402 13.093C76.0947 13.093 73.4824 15.1107 73.4824 18.7161C73.4826 22.3213 76.0707 24.3401 80.2402 24.3401C84.3854 24.34 86.9969 22.3198 86.9971 18.7161C86.9971 15.1121 84.3855 13.0931 80.2402 13.093ZM172.903 13.093C168.758 13.093 166.146 15.1107 166.146 18.7161C166.146 22.3213 168.734 24.3401 172.903 24.3401C177.048 24.34 179.66 22.3198 179.66 18.7161C179.66 15.1121 177.049 13.0932 172.903 13.093ZM248.052 13.093C243.906 13.093 241.294 15.1107 241.294 18.7161C241.294 22.3213 243.882 24.3401 248.052 24.3401C252.197 24.34 254.808 22.3199 254.809 18.7161C254.809 15.1121 252.197 13.0931 248.052 13.093ZM264.993 18.2366H272.564C274.578 18.2366 276.063 17.755 276.063 15.8811C276.063 14.0075 274.577 13.5266 272.564 13.5266H264.993V18.2366ZM23.2979 4.01685C23.0367 3.91882 22.5109 4.19918 22.2617 4.46509C21.067 5.73982 19.9269 7.06569 18.6934 8.45728C18.6913 8.45525 18.6899 8.45387 18.6895 8.45337C18.6868 8.45606 18.6846 8.45728 18.6846 8.45728C17.4511 7.0658 16.3105 5.73973 15.1172 4.46509C14.8681 4.19912 14.3413 3.92013 14.0801 4.01685C13.8123 4.1164 13.5675 4.66936 13.5635 5.02661C13.5273 8.90723 13.5528 12.7892 13.5273 16.6711C13.5233 17.285 13.6703 17.4897 14.3105 17.4817C15.7691 17.4656 17.229 17.4614 18.6875 17.4641C20.1461 17.4614 21.6068 17.4656 23.0654 17.4817H23.0674C23.7063 17.4897 23.8556 17.285 23.8516 16.6711C23.8248 12.7892 23.8516 8.90857 23.8154 5.02661C23.8114 4.6693 23.5657 4.11625 23.2979 4.01685Z" fill="#2B4B6D"/>
</svg>
