<svg width="38" height="38" viewBox="0 0 38 38" fill="none" xmlns="http://www.w3.org/2000/svg">
<path d="M13.522 32.6442L13.5395 21.1954C12.3447 21.1954 11.2571 21.1846 10.1735 21.1793C9.46492 21.1752 9.35374 21.4049 9.3591 22.0269C9.38455 25.2508 9.37919 28.4747 9.3658 31.6972C9.36044 33.062 8.48445 33.9271 7.22539 34.3112C7.09413 34.3515 6.96018 34.3851 6.70703 34.4563C7.08609 35.1092 7.54283 35.719 8.09468 36.2362C8.55143 36.666 9.07246 37.0301 9.64574 37.2853C10.3958 37.6211 11.2129 37.7662 12.0272 37.8414C12.8483 37.918 13.6828 37.9663 14.5052 37.961C14.9579 37.9583 15.412 37.9395 15.862 37.8992C16.0053 37.8857 16.1728 37.8562 16.363 37.8132C16.1915 37.7017 16.0402 37.5956 15.9638 37.5432C14.2373 36.3598 13.4832 34.7908 13.5194 32.6429L13.522 32.6442Z" fill="#464139"/>
<path d="M35.8887 27.4847C35.5444 27.2685 35.2444 26.9689 35.0649 26.6035C34.8091 26.0797 34.8051 25.4712 34.8024 24.9016C34.8024 24.8815 34.8024 24.86 34.8024 24.8398C34.7836 20.7683 34.7863 16.6968 34.7984 12.6253C34.8024 11.2793 35.7614 10.4142 36.9736 10.0247C37.1009 9.98438 37.2335 9.96289 37.3661 9.92931C36.5262 7.41736 32.5923 5.80541 29.1286 6.55228C29.4594 7.05467 29.7648 7.44826 29.9657 8.0205C30.9395 10.601 30.7225 13.6247 30.6247 16.3287C30.6167 16.5329 30.6086 16.7398 30.5403 16.9319C30.3689 17.4074 29.8786 17.4732 29.4353 17.4732C29.0335 17.4732 28.6316 17.4772 28.2312 17.4772C28.2178 17.4772 28.2057 17.4746 28.1896 17.4705C28.0785 17.4383 28.0034 17.3322 28.0034 17.2153V16.3287C28.0048 13.1532 28.0543 9.97767 27.986 6.80213C27.9526 5.23317 28.5325 3.93153 30.6314 3.53391C29.8036 1.90182 28.4977 0.910472 26.8301 0.377186C23.1909 -0.784758 20.5495 0.824501 18.6891 4.02824C16.8273 0.823158 14.1859 -0.784758 10.5467 0.377186C8.87908 0.910472 7.57313 1.90182 6.74537 3.53391C8.84425 3.93153 9.42422 5.23317 9.39074 6.80213C9.32109 9.97767 9.37065 13.1532 9.37333 16.3287V17.2153C9.37333 17.3322 9.29832 17.4383 9.18715 17.4705C9.17241 17.4746 9.15902 17.4772 9.14562 17.4772C8.74647 17.4772 8.34331 17.4732 7.94148 17.4732C7.49813 17.4732 7.00655 17.4087 6.83645 16.9319C6.76814 16.7398 6.7601 16.5329 6.75206 16.3287C6.65428 13.6234 6.4373 10.601 7.41106 8.0205C7.61198 7.4496 7.91737 7.05467 8.24821 6.55228C4.7831 5.80541 0.849198 7.41736 0.00937601 9.92931C0.14198 9.96289 0.274583 9.98438 0.401829 10.0247C1.61535 10.4156 2.57304 11.2793 2.57706 12.6253C2.58912 16.6968 2.5918 20.7683 2.57304 24.8398C2.57304 24.86 2.57304 24.8801 2.57304 24.9016C2.57036 25.4712 2.56635 26.081 2.31052 26.6035C2.13103 26.9689 1.83234 27.2685 1.48677 27.4847C1.2604 27.6271 1.01261 27.7373 0.759456 27.8219C0.697843 27.8434 0.00535772 28.0556 0 28.0395C0.849198 30.5904 5.30548 32.3757 8.2616 31.3615C7.10701 30.0867 6.76144 28.5446 6.75742 26.8897C6.75206 25.1609 6.74938 23.4307 6.75608 21.6992C6.7601 20.7764 7.00522 20.5332 7.94817 20.5332C11.5298 20.5319 15.1101 20.5319 18.6891 20.5319C22.268 20.5319 25.8483 20.5319 29.4299 20.5332C30.3716 20.5332 30.618 20.775 30.622 21.6992C30.6274 23.4307 30.6261 25.1595 30.6194 26.8897C30.6153 28.5433 30.2684 30.0867 29.1152 31.3615C32.0713 32.3757 36.5276 30.5918 37.3768 28.0395C37.3714 28.0556 36.6789 27.8434 36.6173 27.8219C36.3642 27.7373 36.1164 27.6271 35.89 27.4847H35.8887ZM23.065 17.4813C21.6063 17.4652 20.1464 17.4611 18.6877 17.4638C17.2291 17.4611 15.7691 17.4652 14.3105 17.4813C13.6702 17.4893 13.5229 17.2852 13.5269 16.6713C13.5523 12.7892 13.5269 8.90707 13.5631 5.02631C13.5671 4.66899 13.8122 4.11556 14.0801 4.01615C14.3413 3.91944 14.8677 4.19884 15.1168 4.46481C16.3102 5.73959 17.4514 7.06542 18.685 8.45707C18.685 8.45707 18.6864 8.45572 18.6891 8.45304C18.6891 8.45304 18.6904 8.45438 18.6931 8.45707C19.9267 7.06542 21.0665 5.73959 22.2613 4.46481C22.5104 4.19884 23.0368 3.91809 23.298 4.01615C23.5659 4.11556 23.811 4.66899 23.8151 5.02631C23.8512 8.90841 23.8244 12.7892 23.8512 16.6713C23.8552 17.2852 23.7066 17.4893 23.0677 17.4813H23.065Z" fill="#464139"/>
<path d="M28.0096 31.6972C27.9962 28.4733 27.9909 25.2494 28.0163 22.0269C28.0217 21.4036 27.9105 21.1752 27.2019 21.1793C26.1183 21.1846 25.0307 21.1954 23.836 21.1954L23.8534 32.6442C23.8909 34.7908 23.1368 36.3598 21.4089 37.5445C21.3326 37.5969 21.1812 37.703 21.0098 37.8145C21.2013 37.8589 21.3674 37.8871 21.5107 37.9005C21.9621 37.9421 22.4148 37.9596 22.8689 37.9623C23.6913 37.9677 24.5271 37.9193 25.3468 37.8427C26.1612 37.7675 26.9769 37.6224 27.7283 37.2866C28.3016 37.0301 28.8227 36.666 29.2794 36.2375C29.8299 35.7203 30.2867 35.1092 30.667 34.4577C30.4139 34.3865 30.28 34.3529 30.1487 34.3126C28.8896 33.9297 28.0136 33.0633 28.0083 31.6985L28.0096 31.6972Z" fill="#464139"/>
</svg>
