<svg width="16" height="20" viewBox="0 0 16 20" fill="none" xmlns="http://www.w3.org/2000/svg">
<g clip-path="url(#clip0_733_1290)">
<path fill-rule="evenodd" clip-rule="evenodd" d="M-0.0100777 16.1501L0.0999223 18.1401C5.33992 19.9301 10.5799 19.9401 15.8199 18.1401L15.9299 16.1501C16.2599 10.1301 -0.330078 10.1501 -0.0100777 16.1501Z" fill="#0E1114"/>
<path fill-rule="evenodd" clip-rule="evenodd" d="M7.28029 10.52C7.89029 10.61 8.04029 10.61 8.65029 10.52C9.91029 10.23 11.0403 9.39002 11.5303 8.51002C12.0903 7.51002 12.3403 4.86002 12.2303 3.74002C12.0303 1.60002 10.1103 0.52002 7.97029 0.52002C5.83029 0.52002 3.90029 1.59002 3.70029 3.74002C3.60029 4.86002 3.85029 7.51002 4.40029 8.51002C4.89029 9.39002 6.02029 10.23 7.28029 10.52Z" fill="#0E1114"/>
</g>
<defs>
<clipPath id="clip0_733_1290">
<rect width="15.95" height="18.96" fill="white" transform="translate(-0.00976562 0.52002)"/>
</clipPath>
</defs>
</svg>
