<svg width="17" height="17" viewBox="0 0 17 17" fill="none" xmlns="http://www.w3.org/2000/svg">
<path fill-rule="evenodd" clip-rule="evenodd" d="M12.1464 0.439453H5.18064C2.77621 0.439453 0.827026 2.38864 0.827026 4.79307V11.7588C0.827026 14.1633 2.77621 16.1125 5.18064 16.1125H12.1464C14.5508 16.1125 16.5 14.1633 16.5 11.7588V4.79307C16.5 2.38864 14.5508 0.439453 12.1464 0.439453ZM14.9763 11.7588C14.9715 13.3197 13.7073 14.5839 12.1464 14.5887H5.18064C3.61974 14.5839 2.35557 13.3197 2.35079 11.7588V4.79307C2.35557 3.23216 3.61974 1.968 5.18064 1.96322H12.1464C13.7073 1.968 14.9715 3.23216 14.9763 4.79307V11.7588ZM12.7995 5.01075C13.2804 5.01075 13.6702 4.62091 13.6702 4.14002C13.6702 3.65914 13.2804 3.2693 12.7995 3.2693C12.3186 3.2693 11.9287 3.65914 11.9287 4.14002C11.9287 4.62091 12.3186 5.01075 12.7995 5.01075ZM8.66353 4.3577C6.49954 4.3577 4.74528 6.11197 4.74528 8.27596C4.74528 10.44 6.49954 12.1942 8.66353 12.1942C10.8275 12.1942 12.5818 10.44 12.5818 8.27596C12.5841 7.23605 12.172 6.23809 11.4367 5.50277C10.7014 4.76746 9.70343 4.35539 8.66353 4.3577ZM6.26904 8.27596C6.26904 9.59841 7.34108 10.6704 8.66353 10.6704C9.98598 10.6704 11.058 9.59841 11.058 8.27596C11.058 6.9535 9.98598 5.88147 8.66353 5.88147C7.34108 5.88147 6.26904 6.9535 6.26904 8.27596Z" fill="white"/>
</svg>
