<svg width="94" height="94" viewBox="0 0 94 94" fill="none" xmlns="http://www.w3.org/2000/svg">
<g clip-path="url(#clip0_1068_2893)">
<path d="M20.8638 85.9053L26.693 72.6786L29.7293 74.004L27.3573 79.3902L36.4131 83.3434L38.7866 77.9572L41.8244 79.2826L35.9952 92.5093L32.9574 91.1839L35.2473 85.9885L26.1915 82.0352L23.9016 87.2307L20.8638 85.9053Z" fill="white"/>
<path d="M20.0537 76.6031C16.0633 79.3514 11.681 78.0547 8.45726 73.4202C5.23499 68.787 5.55923 64.2471 9.54816 61.4959C13.5385 58.7476 17.9223 60.0458 21.1446 64.6789C24.3669 69.312 24.0441 73.8534 20.0537 76.6031ZM11.472 64.2629C8.91409 66.0244 8.76854 68.8616 10.8106 71.7993C12.8526 74.7355 15.5719 75.599 18.1298 73.8362C20.6878 72.0733 20.8463 69.2547 18.7913 66.2998C16.7493 63.3635 14.0314 62.5 11.472 64.2615V64.2629Z" fill="white"/>
<path d="M0.125 41.6237L7.7815 41.1317C12.1278 40.8534 15.2521 43.5271 15.5908 48.7584C15.9294 53.9897 13.1769 57.0407 8.83206 57.3204L1.17555 57.8124L0.962272 54.5161L8.37091 54.0413C11.2675 53.8548 12.8959 52.0547 12.6942 48.9434C12.4939 45.8336 10.6449 44.2572 7.74836 44.4437L0.339722 44.9185L0.126441 41.6237H0.125Z" fill="white"/>
<path d="M17.7869 23.7438C20.3693 24.9688 20.9991 28.2607 18.7885 32.881C17.2105 36.1801 14.9898 38.4192 12.3324 39.6055L11.1132 36.9231C13.3585 36.0209 15.0402 34.2809 16.3156 31.6173C17.5808 28.9708 17.7177 27.3915 16.6312 26.8751C15.546 26.3601 14.6036 27.5607 12.906 30.4353C10.8048 34.0113 8.32329 37.0867 5.51461 35.7555C2.78086 34.4602 2.67422 30.8441 4.59952 26.8192C5.96423 23.969 7.85205 21.8446 9.93731 20.799L11.23 23.4239C9.43869 24.3362 8.14315 25.8925 7.10701 28.0083C6.24092 29.7697 5.52614 32.082 6.72368 32.65C7.84773 33.1822 8.85073 31.372 10.2961 28.8818C12.6221 24.8856 14.9019 22.3782 17.784 23.7438H17.7869Z" fill="white"/>
<path d="M32.5768 14.3039L34.247 16.5143L22.2961 25.4622L13.5688 13.9137L25.3541 5.0907L27.0243 7.30112L17.8748 14.1519L19.669 16.5272L27.3111 10.8068L28.9827 13.0187L21.3406 18.7405L23.2602 21.2809L32.5754 14.3053L32.5768 14.3039Z" fill="white"/>
<path d="M38.203 7.60526C38.2419 2.77561 41.8331 -0.0444368 47.4951 2.98204e-05C53.1571 0.0473653 56.7008 2.92335 56.6619 7.75444C56.6229 12.5855 53.0318 15.4056 47.3697 15.3582C41.7077 15.3123 38.164 12.4349 38.203 7.60383V7.60526ZM53.2796 7.72575C53.3056 4.6303 51.0589 2.87745 47.472 2.84876C43.8837 2.82008 41.6082 4.53419 41.5837 7.63108C41.5578 10.728 43.7843 12.4794 47.3928 12.5095C50.9796 12.5382 53.2551 10.8226 53.2796 7.72575Z" fill="white"/>
<path d="M65.7075 7.32412L64.0545 10.2331L72.3912 14.9265L70.9818 17.4037L62.6466 12.7103L59.9719 17.4166L57.084 15.79L64.2289 3.21741L77.0041 10.4095L75.5962 12.8882L65.7075 7.32125V7.32412Z" fill="white"/>
<path d="M93.875 38.3704L80.4152 43.781L79.173 40.7171L88.5372 36.9532L78.9424 33.9754L78.8805 33.8219L83.7067 25.0491L74.3425 28.8115L73.1392 25.8466L86.5989 20.436L87.9507 23.7667L83.1346 32.2914L92.5463 35.0957L93.875 38.369V38.3704Z" fill="white"/>
<path d="M87.4492 45.8681C92.1962 46.8693 94.2584 50.9344 93.0839 56.4468C91.9094 61.9607 88.3701 64.8424 83.6232 63.8412C78.8762 62.8386 76.8155 58.7763 77.9885 53.2625C79.163 47.75 82.7023 44.8669 87.4492 45.8681ZM84.3235 60.5492C87.3671 61.1904 89.5388 59.3486 90.2839 55.8559C91.0275 52.3616 89.7925 49.8012 86.7489 49.16C83.7053 48.5174 81.5365 50.3406 80.7885 53.8534C80.0449 57.3476 81.2785 59.9066 84.3235 60.5492Z" fill="white"/>
<path d="M67.2509 72.0546L73.7012 72.33L77.2535 68.4915L73.6249 65.1651L75.8571 62.7524L86.5284 72.5351L79.7466 79.8649C77.3458 82.4583 74.3296 83.3132 72.0123 81.1874C70.198 79.525 70.1792 77.2916 71.3969 75.1543L64.5676 74.9521L67.2495 72.0546H67.2509ZM74.844 75.1156C73.6652 76.3908 73.0989 77.6115 74.2863 78.7031C75.4752 79.7918 76.6511 79.1305 77.8314 77.8568L82.2685 73.0615L79.2797 70.3232L74.8426 75.117L74.844 75.1156Z" fill="white"/>
<path d="M50.7043 82.1342L49.8137 79.5135L63.9753 74.7484L68.6242 88.4327L54.6587 93.1318L53.7695 90.5111L64.6108 86.862L63.6539 84.0462L54.5996 87.0958L53.7104 84.4751L62.7648 81.4256L61.7416 78.4162L50.7029 82.1313L50.7043 82.1342Z" fill="white"/>
<path d="M44.2057 57.3785L44.219 48.1216C43.3032 48.1216 42.4696 48.1129 41.639 48.1086C41.0959 48.1053 41.0106 48.291 41.0148 48.7939C41.0343 51.4005 41.0302 54.0072 41.0199 56.6128C41.0158 57.7162 40.3443 58.4157 39.3793 58.7263C39.2786 58.7589 39.176 58.7861 38.9819 58.8436C39.2725 59.3715 39.6226 59.8646 40.0456 60.2827C40.3957 60.6303 40.795 60.9246 41.2345 61.131C41.8094 61.4025 42.4357 61.5198 43.0599 61.5806C43.6892 61.6425 44.3289 61.6816 44.9592 61.6773C45.3063 61.6751 45.6543 61.6599 45.9993 61.6273C46.1091 61.6165 46.2375 61.5926 46.3832 61.5578C46.2518 61.4677 46.1358 61.3818 46.0773 61.3395C44.7539 60.3826 44.1759 59.1141 44.2036 57.3774L44.2057 57.3785Z" fill="white"/>
<path d="M62.4497 52.7983C62.1714 52.6255 61.9288 52.3862 61.7836 52.0942C61.5768 51.6757 61.5735 51.1895 61.5714 50.7344C61.5714 50.7183 61.5714 50.7012 61.5714 50.6851C61.5562 47.4321 61.5584 44.1791 61.5681 40.9261C61.5714 39.8507 62.3468 39.1595 63.327 38.8483C63.4298 38.8161 63.5371 38.7989 63.6443 38.7721C62.9652 36.7651 59.7844 35.4772 56.9836 36.0739C57.2511 36.4753 57.4981 36.7898 57.6605 37.247C58.4479 39.3087 58.2724 41.7246 58.1934 43.885C58.1869 44.0481 58.1804 44.2134 58.1251 44.3669C57.9865 44.7468 57.5901 44.7994 57.2316 44.7994C56.9067 44.7994 56.5818 44.8026 56.258 44.8026C56.2472 44.8026 56.2374 44.8005 56.2244 44.7973C56.1345 44.7715 56.0739 44.6867 56.0739 44.5933V43.885C56.075 41.3478 56.115 38.8107 56.0598 36.2736C56.0327 35.02 56.5017 33.98 58.1988 33.6623C57.5295 32.3584 56.4735 31.5663 55.1251 31.1402C52.1825 30.2119 50.0468 31.4976 48.5425 34.0573C47.0371 31.4965 44.9013 30.2119 41.9587 31.1402C40.6103 31.5663 39.5544 32.3584 38.8851 33.6623C40.5822 33.98 41.0511 35.02 41.0241 36.2736C40.9677 38.8107 41.0078 41.3478 41.01 43.885V44.5933C41.01 44.6867 40.9493 44.7715 40.8594 44.7973C40.8475 44.8005 40.8367 44.8026 40.8259 44.8026C40.5031 44.8026 40.1771 44.7994 39.8522 44.7994C39.4937 44.7994 39.0963 44.7479 38.9587 44.3669C38.9035 44.2134 38.897 44.0481 38.8905 43.885C38.8114 41.7235 38.636 39.3087 39.4233 37.247C39.5858 36.7909 39.8327 36.4753 40.1002 36.0739C37.2984 35.4772 34.1176 36.7651 33.4385 38.7721C33.5457 38.7989 33.6529 38.8161 33.7558 38.8483C34.737 39.1606 35.5114 39.8507 35.5147 40.9261C35.5244 44.1791 35.5266 47.4321 35.5114 50.6851C35.5114 50.7012 35.5114 50.7173 35.5114 50.7344C35.5092 51.1895 35.506 51.6767 35.2991 52.0942C35.154 52.3862 34.9125 52.6255 34.6331 52.7983C34.45 52.9121 34.2497 53.0001 34.045 53.0677C33.9952 53.0848 33.4352 53.2544 33.4309 53.2415C34.1176 55.2796 37.7208 56.706 40.1111 55.8957C39.1775 54.8772 38.8981 53.6451 38.8948 52.3228C38.8905 50.9416 38.8883 49.5592 38.8937 48.1758C38.897 47.4385 39.0952 47.2443 39.8576 47.2443C42.7537 47.2432 45.6486 47.2432 48.5425 47.2432C51.4363 47.2432 54.3313 47.2432 57.2273 47.2443C57.9887 47.2443 58.188 47.4374 58.1912 48.1758C58.1955 49.5592 58.1945 50.9405 58.189 52.3228C58.1858 53.644 57.9053 54.8772 56.9728 55.8957C59.3631 56.706 62.9663 55.2807 63.6529 53.2415C63.6486 53.2544 63.0887 53.0848 63.0389 53.0677C62.8342 53.0001 62.6338 52.9121 62.4508 52.7983H62.4497ZM52.0807 44.8058C50.9013 44.793 49.7208 44.7897 48.5414 44.7919C47.362 44.7897 46.1815 44.793 45.002 44.8058C44.4843 44.8123 44.3652 44.6491 44.3685 44.1587C44.389 41.057 44.3685 37.9553 44.3977 34.8547C44.401 34.5692 44.5991 34.1271 44.8158 34.0476C45.0269 33.9704 45.4526 34.1936 45.654 34.4061C46.619 35.4246 47.5417 36.4839 48.5392 37.5958C48.5392 37.5958 48.5403 37.5947 48.5425 37.5926C48.5425 37.5926 48.5436 37.5936 48.5457 37.5958C49.5432 36.4839 50.4649 35.4246 51.4309 34.4061C51.6324 34.1936 52.058 33.9693 52.2692 34.0476C52.4858 34.1271 52.684 34.5692 52.6872 34.8547C52.7165 37.9564 52.6948 41.057 52.7165 44.1587C52.7197 44.6491 52.5995 44.8123 52.0829 44.8058H52.0807Z" fill="white"/>
<path d="M56.0654 56.6121C56.0551 54.0056 56.051 51.3992 56.0705 48.7938C56.0746 48.2899 55.9894 48.1053 55.4464 48.1086C54.6159 48.1129 53.7823 48.1216 52.8667 48.1216L52.88 57.3777C52.9088 59.1132 52.3308 60.3817 51.0066 61.3395C50.9481 61.3819 50.8321 61.4677 50.7007 61.5578C50.8475 61.5936 50.9748 61.6165 51.0846 61.6273C51.4305 61.661 51.7775 61.6751 52.1255 61.6773C52.7558 61.6816 53.3964 61.6425 54.0246 61.5806C54.6487 61.5198 55.2739 61.4025 55.8498 61.131C56.2891 60.9236 56.6885 60.6293 57.0385 60.2828C57.4604 59.8647 57.8105 59.3706 58.102 58.8439C57.908 58.7863 57.8053 58.7591 57.7047 58.7266C56.7398 58.417 56.0684 57.7166 56.0643 56.6132L56.0654 56.6121Z" fill="white"/>
</g>
<defs>
<clipPath id="clip0_1068_2893">
<rect width="93.75" height="93.1332" fill="white" transform="translate(0.125)"/>
</clipPath>
</defs>
</svg>
