<svg width="147" height="121" viewBox="0 0 147 121" fill="none" xmlns="http://www.w3.org/2000/svg">
<path d="M65.2058 49.8013L65.2324 32.3345C63.3449 32.3345 61.6285 32.3185 59.9171 32.3099C58.7978 32.3038 58.6241 32.6526 58.6317 33.6032C58.6723 38.5211 58.6621 43.439 58.6419 48.3569C58.633 50.4387 57.25 51.7603 55.2623 52.345C55.0556 52.4064 54.844 52.4567 54.4446 52.566C55.0442 53.5622 55.7655 54.4932 56.6352 55.2817C57.3577 55.9363 58.1792 56.4915 59.0843 56.8833C60.2695 57.3955 61.56 57.6166 62.8441 57.732C64.1409 57.8487 65.458 57.9224 66.7587 57.915C67.4736 57.9101 68.1898 57.8831 68.9023 57.8192C69.1292 57.7996 69.3928 57.7541 69.6946 57.6878C69.4245 57.5171 69.185 57.3562 69.0645 57.2764C66.3365 55.4696 65.1462 53.0758 65.2058 49.8013Z" fill="white"/>
<path d="M101.672 42.4441C101.272 42.3139 100.881 42.1469 100.524 41.9295C99.9801 41.5991 99.5072 41.1434 99.2245 40.5858C98.8202 39.7874 98.8138 38.8576 98.8087 37.988C98.8087 37.9561 98.8087 37.9254 98.8087 37.8947C98.7783 31.6835 98.7821 25.4722 98.8024 19.2598C98.8087 17.2062 100.322 15.8871 102.238 15.2914C102.438 15.2287 102.647 15.198 102.856 15.1464C101.53 11.3143 95.3189 8.85537 89.8477 9.99395C90.3712 10.7604 90.8529 11.3622 91.1698 12.233C92.7075 16.1695 92.3652 20.7816 92.2106 24.9097C92.1992 25.2205 92.1865 25.5373 92.0775 25.8309C91.8075 26.5568 91.0329 26.6563 90.3319 26.6563C89.6981 26.6563 89.063 26.6624 88.4317 26.6624C88.4114 26.6624 88.3911 26.6587 88.3671 26.6526C88.1908 26.6022 88.0717 26.4413 88.0717 26.2632V24.9109C88.0742 20.0668 88.1528 15.2201 88.0438 10.3772C87.9906 7.98455 88.9071 5.99725 92.2207 5.39173C90.9138 2.90208 88.85 1.39012 86.2184 0.575796C80.4721 -1.19656 76.3015 1.25747 73.3618 6.14587C70.4234 1.25624 66.2515 -1.19778 60.5052 0.575796C57.8723 1.39012 55.8098 2.90208 54.5029 5.39173C57.8165 5.99725 58.733 7.98455 58.6798 10.3772C58.5708 15.2213 58.6481 20.068 58.6519 24.9109V26.2632C58.6519 26.4413 58.534 26.6022 58.3565 26.6526C58.3325 26.66 58.3122 26.6624 58.2919 26.6624C57.6606 26.6624 57.0255 26.6563 56.3917 26.6563C55.6919 26.6563 54.9161 26.558 54.6461 25.8309C54.5371 25.5386 54.5244 25.2217 54.513 24.9097C54.3584 20.7828 54.0161 16.1708 55.5538 12.233C55.8719 11.3622 56.3537 10.7604 56.8759 9.99395C51.4047 8.85537 45.1932 11.3155 43.8672 15.1464C44.0764 15.198 44.2856 15.2299 44.4858 15.2914C46.4013 15.8871 47.9149 17.2062 47.9212 19.2598C47.9415 25.471 47.9453 31.6822 47.9149 37.8947C47.9149 37.9254 47.9149 37.9573 47.9149 37.988C47.9111 38.8576 47.9035 39.7874 47.4991 40.5858C47.2164 41.1434 46.7435 41.5991 46.1997 41.9295C45.841 42.1481 45.4518 42.3139 45.0512 42.4441C44.9536 42.476 43.8609 42.8003 43.852 42.7757C45.1932 46.668 52.2312 49.391 56.8987 47.8434C55.0759 45.8991 54.5295 43.5446 54.5232 41.0218C54.5143 38.3835 54.5105 35.7453 54.5206 33.1033C54.527 31.6945 54.9149 31.3248 56.4018 31.3248C62.0581 31.3224 67.7106 31.3224 73.3631 31.3224C79.0156 31.3224 84.668 31.3224 90.3243 31.3248C91.8125 31.3248 92.2005 31.6945 92.2068 33.1033C92.2157 35.744 92.2131 38.3835 92.2043 41.0218C92.1979 43.5458 91.6516 45.8991 89.8287 47.8434C94.4962 49.3922 101.534 46.668 102.875 42.7757C102.867 42.8003 101.774 42.476 101.676 42.4441H101.672ZM80.2743 26.6686C77.9697 26.6452 75.6664 26.6391 73.3618 26.6415C71.0572 26.6391 68.7539 26.644 66.4493 26.6686C65.4389 26.6808 65.2044 26.3689 65.2108 25.4329C65.2513 19.5104 65.2108 13.5878 65.2678 7.66643C65.2742 7.12109 65.6621 6.27606 66.0842 6.12499C66.4962 5.97637 67.329 6.4038 67.722 6.80912C69.607 8.75343 71.4083 10.7776 73.3567 12.9012C73.3567 12.9012 73.3588 12.8992 73.3631 12.8951C73.3631 12.8951 73.3656 12.8975 73.3694 12.9012C75.3165 10.7776 77.1179 8.75465 79.0041 6.80912C79.3984 6.40257 80.23 5.97637 80.642 6.12499C81.0641 6.27606 81.452 7.12109 81.4583 7.66643C81.5154 13.589 81.4735 19.5104 81.5154 25.4329C81.5217 26.3689 81.2872 26.6808 80.2769 26.6686H80.2743Z" fill="white"/>
<path d="M88.0806 48.3569C88.0603 43.439 88.0514 38.5211 88.0907 33.6032C88.0983 32.6526 87.9246 32.3038 86.8053 32.3099C85.0927 32.3185 83.3775 32.3345 81.49 32.3345L81.5166 49.8013C81.5749 53.077 80.3846 55.4708 77.6579 57.2764C77.5375 57.3562 77.2979 57.5171 77.0279 57.6878C77.3296 57.7554 77.5932 57.7996 77.8201 57.8192C78.5326 57.8819 79.2488 57.9101 79.9638 57.915C81.2631 57.9236 82.5815 57.8487 83.8783 57.732C85.1637 57.6166 86.4529 57.3955 87.6381 56.8833C88.5433 56.4927 89.366 55.9376 90.0873 55.2817C90.9569 54.4919 91.6782 53.5609 92.2778 52.5661C91.8785 52.4567 91.6668 52.4064 91.4601 52.345C89.4712 51.7603 88.0882 50.4387 88.0806 48.3569Z" fill="white"/>
<path d="M26.1889 68.321V81.1832H23.1554V75.946H14.1094V81.1832H11.0746V68.321H14.1094V73.374H23.1554V68.321H26.1889Z" fill="white"/>
<path d="M28.5212 74.7522C28.5212 70.4521 31.7829 67.917 36.96 67.917C42.1371 67.917 45.3988 70.4521 45.3988 74.7522C45.3988 79.0522 42.1371 81.5873 36.96 81.5873C31.7829 81.5873 28.5212 79.0522 28.5212 74.7522ZM42.3082 74.7522C42.3082 71.996 40.2407 70.4521 36.96 70.4521C33.6793 70.4521 31.6117 71.996 31.6117 74.7522C31.6117 77.5083 33.6603 79.0522 36.96 79.0522C40.2597 79.0522 42.3082 77.5083 42.3082 74.7522Z" fill="white"/>
<path d="M62.4299 68.321V75.1194C62.4299 78.9785 59.7944 81.5873 54.9773 81.5873C50.1602 81.5873 47.5248 78.9785 47.5248 75.1194V68.321H50.5596V74.8983C50.5596 77.4702 52.115 79.0141 54.9786 79.0141C57.8422 79.0141 59.3977 77.4702 59.3977 74.8983V68.321H62.4312H62.4299Z" fill="white"/>
<path d="M79.8385 77.2873C79.8385 79.8223 77.3539 81.5873 72.6509 81.5873C69.2942 81.5873 66.5636 80.6686 64.5341 78.997L66.2784 76.9937C67.9099 78.4455 70.0142 79.1247 72.7257 79.1247C75.4372 79.1247 76.7835 78.6285 76.7835 77.5636C76.7835 76.4987 75.4182 76.2039 72.3644 75.946C68.5716 75.634 65.045 74.8259 65.045 72.0685C65.045 69.3111 68.0037 67.9158 72.0995 67.9158C75.0012 67.9158 77.5048 68.6146 79.192 69.8822L77.5238 71.9223C76.0635 70.8378 74.2621 70.3968 72.0995 70.3784C70.2982 70.36 68.0975 70.6732 68.0975 71.8486C68.0975 72.9503 69.9939 73.0609 72.6294 73.2635C76.8583 73.5939 79.836 74.4574 79.836 77.2873H79.8385Z" fill="white"/>
<path d="M95.9773 78.7206V81.1832H82.3044V68.321H95.7871V70.7837H85.3188V73.4293H94.0606V75.8919H85.3188V78.7218H95.976L95.9773 78.7206Z" fill="white"/>
<path d="M102.995 74.7522C102.995 70.4521 106.257 67.917 111.434 67.917C116.611 67.917 119.873 70.4521 119.873 74.7522C119.873 79.0522 116.611 81.5873 111.434 81.5873C106.257 81.5873 102.995 79.0522 102.995 74.7522ZM116.782 74.7522C116.782 71.996 114.715 70.4521 111.434 70.4521C108.153 70.4521 106.086 71.996 106.086 74.7522C106.086 77.5083 108.134 79.0522 111.434 79.0522C114.734 79.0522 116.782 77.5083 116.782 74.7522Z" fill="white"/>
<path d="M125.259 70.8561V73.8334H134.021V76.3685H125.259V81.182H122.225V68.3198H135.652V70.8549H125.26L125.259 70.8561Z" fill="white"/>
<path d="M38.1483 92.4446V119.696H31.72V100.736L19.3845 115.335H19.0625L6.72691 100.736V119.696H0.500183V92.4446H7.49131L19.3845 106.849L31.2776 92.4446H38.1483Z" fill="white"/>
<path d="M41.4821 106.069C41.4821 96.9595 48.3934 91.5872 59.3624 91.5872C70.3315 91.5872 77.2427 96.9595 77.2427 106.069C77.2427 115.179 70.3315 120.552 59.3624 120.552C48.3934 120.552 41.4821 115.179 41.4821 106.069ZM70.6928 106.069C70.6928 100.23 66.313 96.9595 59.3624 96.9595C52.4119 96.9595 48.0321 100.23 48.0321 106.069C48.0321 111.908 52.3713 115.179 59.3624 115.179C66.3536 115.179 70.6928 111.908 70.6928 106.069Z" fill="white"/>
<path d="M105.245 119.696L97.1692 110.43H87.0038V119.696H80.6148V92.4446H100.021C106.892 92.4446 112.076 95.5201 112.076 101.438C112.076 106.071 108.901 108.951 104.24 110.002L112.919 119.696H105.244H105.245ZM99.6601 105.291C103.036 105.291 105.527 104.512 105.527 101.476C105.527 98.4396 103.036 97.6609 99.6601 97.6609H86.9633V105.291H99.6601Z" fill="white"/>
<path d="M146.228 114.479V119.696H117.258V92.4446H145.826V97.6609H123.647V103.267H142.17V108.483H123.647V114.478H146.228V114.479Z" fill="white"/>
</svg>
