<svg width="427" height="121" viewBox="0 0 427 121" fill="none" xmlns="http://www.w3.org/2000/svg">
<path d="M426.8 0H0V121H426.8V0Z" fill="#005EB8"/>
<path d="M61.6829 48C64.9495 48 67.3628 49.087 69.5812 51.235C69.8737 51.5197 69.8737 51.9338 69.6056 52.2184L67.0459 55.0393C66.8265 55.2723 66.4609 55.2723 66.2171 55.0393C64.9982 53.9006 63.4137 53.2795 61.8048 53.2795C58.0994 53.2795 55.3935 56.5404 55.3935 60.4224C55.3935 64.3043 58.1481 67.4617 61.8291 67.4617C63.3649 67.4617 65.0226 66.8665 66.2171 65.8054C66.4365 65.5983 66.8753 65.5983 67.0703 65.8313L69.6299 68.7039C69.8493 68.9369 69.825 69.4027 69.6056 69.6356C67.3872 71.913 64.5838 73 61.6585 73C55.1253 73 49.8598 67.4876 49.8598 60.5518C49.8598 53.6159 55.1253 48.0259 61.6585 48.0259" fill="#EDC522"/>
<path d="M76.7841 48.6684C76.7841 48.3209 77.0742 48 77.4434 48H92.08C92.4755 48 92.7393 48.3209 92.7393 48.6684V52.5722C92.7393 52.9198 92.4492 53.2406 92.08 53.2406H82.2959V57.6791H90.3658C90.7086 57.6791 91.0251 58 91.0251 58.3476V62.2513C91.0251 62.6524 90.7086 62.9198 90.3658 62.9198H82.2959V67.7594H92.08C92.4755 67.7594 92.7393 68.0802 92.7393 68.4278V72.3316C92.7393 72.6791 92.4492 73 92.08 73H77.4434C77.0478 73 76.7841 72.6791 76.7841 72.3316V48.615V48.6684Z" fill="#EDC522"/>
<path d="M97.7252 48.6218C97.7252 48.285 98.0518 48 98.4057 48H99.3311L113.893 61.342H113.92V49.0104C113.92 48.6736 114.22 48.3627 114.601 48.3627H118.983C119.337 48.3627 119.664 48.6736 119.664 49.0104V72.3782C119.664 72.715 119.337 73 118.983 73H118.411C118.411 73 118.003 72.8964 117.949 72.8187L103.55 59.0363H103.523V71.9896C103.523 72.3264 103.223 72.6373 102.842 72.6373H98.4873C98.1335 72.6373 97.8069 72.3264 97.8069 71.9896V48.6218H97.7252Z" fill="#EDC522"/>
<path d="M131.015 53.2295H126.265C125.894 53.2295 125.647 52.9093 125.647 52.5624V48.667C125.647 48.3202 125.919 48 126.265 48H140.983C141.355 48 141.602 48.3202 141.602 48.667V52.5624C141.602 52.9093 141.33 53.2295 140.983 53.2295H136.234V72.333C136.234 72.6798 135.937 73 135.616 73H131.633C131.311 73 131.015 72.6798 131.015 72.333V53.2295Z" fill="#EDC522"/>
<path d="M158.807 58.6496C160.182 58.6496 161.357 57.2918 161.357 55.8009C161.357 54.3099 160.182 53.0852 158.807 53.0852H153.857V58.6496H158.807ZM148.582 48.6656C148.582 48.3195 148.857 48 149.207 48H159.232C163.257 48 166.532 51.4611 166.532 55.721C166.532 58.9957 164.482 61.6581 161.582 62.8829L166.182 71.9617C166.407 72.4143 166.182 73 165.607 73H161.157C160.882 73 160.682 72.8136 160.632 72.6805L156.182 63.229H153.882V72.3344C153.882 72.6805 153.582 73 153.257 73H149.257C148.882 73 148.632 72.6805 148.632 72.3344V48.7189L148.582 48.6656Z" fill="#EDC522"/>
<path d="M181.965 67.43C185.462 67.43 188.341 64.2953 188.341 60.513C188.341 56.7306 185.462 53.544 181.965 53.544C178.467 53.544 175.612 56.7047 175.612 60.513C175.612 64.3212 178.491 67.43 181.965 67.43ZM181.965 48C188.341 48 193.456 53.5959 193.456 60.5389C193.456 67.4819 188.341 73 181.965 73C175.588 73 170.521 67.4819 170.521 60.5389C170.521 53.5959 175.588 48 181.965 48Z" fill="#EDC522"/>
<path d="M218.435 53.5266C219.991 53.5266 222.059 54.1522 223.275 55.8206L223.518 56.1856L227.361 53.1616L227.093 52.7706C224.831 49.7466 221.499 48 217.972 48C211.6 48 206.42 53.6048 206.42 60.487C206.42 67.3691 211.6 73 217.972 73C221.499 73 224.904 71.2013 227.045 68.2033L227.312 67.8384L223.494 64.7623L223.226 65.1794C222.277 66.8478 220.016 67.4213 218.41 67.4213C215.224 67.4213 212.719 64.3973 212.719 60.4609C212.719 56.5245 215.224 53.4744 218.41 53.4744" fill="white"/>
<path d="M245.809 48C238.923 48 233.344 53.6048 233.344 60.487C233.344 67.3691 238.923 73 245.809 73C252.695 73 258.274 67.3952 258.274 60.487C258.274 53.5787 252.67 48 245.809 48ZM245.809 67.4734C242.542 67.4734 239.878 64.3451 239.878 60.513C239.878 56.6809 242.542 53.5266 245.809 53.5266C249.076 53.5266 251.765 56.6548 251.765 60.513C251.765 64.3712 249.076 67.4734 245.809 67.4734Z" fill="white"/>
<path d="M299.67 48C292.777 48 287.193 53.6048 287.193 60.487C287.193 67.3691 292.777 73 299.67 73C306.563 73 312.122 67.3952 312.122 60.487C312.122 53.5787 306.538 48 299.67 48ZM299.67 67.4734C296.4 67.4734 293.733 64.3451 293.733 60.513C293.733 56.6809 296.4 53.5266 299.67 53.5266C302.94 53.5266 305.632 56.6548 305.632 60.513C305.632 64.3712 302.966 67.4734 299.67 67.4734Z" fill="white"/>
<path d="M330.537 48.3316L330.874 48.255C331.669 48.0765 332.247 48.0255 332.897 48C333.258 48 333.62 48 333.909 48.051C339.303 48.4591 343.035 52.9479 343.035 59.2476V72H337.039V59.3751C337.039 55.3709 334.655 53.56 332.295 53.56C329.935 53.56 327.093 55.6259 327.093 58.4315V72H321.097V48.4846L321.892 49.0712C322.855 49.6323 323.987 49.9894 325.167 49.9894C326.13 49.9894 327.238 49.7343 328.081 49.3262C328.081 49.3262 329.911 48.5356 330.561 48.3571" fill="white"/>
<path d="M368.796 71.4619C369.636 71.1231 370.577 70.8884 371.568 70.8884C373.222 70.8884 374.748 71.488 375.943 72.5047V48.4432L375.155 49.0427C374.112 49.6163 372.916 49.9812 371.67 49.9812C370.627 49.9812 369.457 49.7205 368.593 49.3034C368.593 49.3034 368.415 49.2252 368.16 49.121C367.982 49.0688 366.965 48.5996 366.634 48.4692C366.584 48.4692 366.151 48.3389 365.999 48.3128C365.999 48.3128 364.778 48.0521 364.142 48.0261C363.938 48.0261 363.76 48 363.557 48H363.481H363.532H363.455C357.122 48 352.01 53.6048 352.01 60.487C352.112 67.4995 357.122 73 363.455 73C365.032 73 366.558 72.635 367.957 71.9573L368.796 71.488V71.4619ZM364.066 67.4213C361.065 67.4213 358.623 64.293 358.623 60.4609C358.623 56.6288 361.065 53.4745 364.066 53.4745C367.067 53.4745 369.585 56.6027 369.585 60.4609C369.585 64.3191 367.118 67.4213 364.066 67.4213Z" fill="white"/>
<path d="M272.899 58.4426C272.899 56.5277 274.374 54.8681 276.357 54.5106C276.572 54.4851 279.467 54.0255 281.209 56.1192V48.1787C281.209 48.1787 280.164 48 279.092 48C277.51 48 275.875 48.383 274.401 49.0468L273.811 49.3277C272.899 49.7362 271.854 49.966 270.782 49.966C269.441 49.966 268.181 49.6085 267.109 49.0213L266.251 48.4596V72H272.926V58.417L272.899 58.4426Z" fill="white"/>
</svg>
