<svg width="301" height="38" viewBox="0 0 301 38" fill="none" xmlns="http://www.w3.org/2000/svg">
<path fill-rule="evenodd" clip-rule="evenodd" d="M35.8887 27.4847C35.5444 27.2685 35.2444 26.9689 35.0649 26.6035C34.8091 26.0797 34.8051 25.4712 34.8024 24.9016V24.8398C34.7836 20.7683 34.7863 16.6968 34.7984 12.6253C34.8024 11.2793 35.7614 10.4142 36.9736 10.0247C37.0529 9.99958 37.1342 9.98177 37.2164 9.96379C37.2661 9.95291 37.3161 9.94197 37.3661 9.92931C36.5262 7.41736 32.5923 5.80541 29.1286 6.55228C29.1867 6.64061 29.2441 6.72557 29.3003 6.80873L29.3003 6.80878C29.5636 7.19861 29.8001 7.54888 29.9657 8.0205C30.8584 10.386 30.7504 13.1241 30.6509 15.6469C30.6418 15.8761 30.6329 16.1035 30.6247 16.3287L30.6247 16.3298V16.3298C30.6166 16.5337 30.6085 16.7401 30.5403 16.9319C30.3689 17.4074 29.8786 17.4732 29.4353 17.4732C29.2344 17.4732 29.0336 17.4742 28.8329 17.4752L28.8322 17.4752H28.8317C28.6313 17.4762 28.4311 17.4772 28.2312 17.4772C28.2178 17.4772 28.2057 17.4746 28.1896 17.4705C28.0785 17.4383 28.0035 17.3322 28.0035 17.2153V16.3287C28.0038 15.4068 28.0083 14.4849 28.0127 13.5629C28.0236 11.3093 28.0345 9.05574 27.986 6.80213C27.9526 5.23317 28.5325 3.93153 30.6314 3.53391C29.8036 1.90182 28.4977 0.910472 26.8301 0.377186C23.1909 -0.784758 20.5495 0.824501 18.6891 4.02824C16.8272 0.823158 14.1859 -0.784758 10.5467 0.377186C8.87908 0.910472 7.57313 1.90182 6.74537 3.53391C8.84425 3.93153 9.42422 5.23317 9.39074 6.80213C9.34075 9.08134 9.35217 11.3606 9.36359 13.6398C9.36808 14.5361 9.37257 15.4324 9.37333 16.3287V17.2153C9.37333 17.3322 9.29832 17.4383 9.18715 17.4705C9.17241 17.4746 9.15902 17.4772 9.14562 17.4772C8.94672 17.4772 8.74681 17.4762 8.54657 17.4752L8.54556 17.4752H8.54543C8.34423 17.4742 8.14268 17.4732 7.94148 17.4732C7.49813 17.4732 7.00656 17.4087 6.83645 16.9319C6.76826 16.7401 6.76013 16.5336 6.7521 16.3298L6.75206 16.3287C6.74391 16.1032 6.73493 15.8755 6.72588 15.646C6.62638 13.1225 6.51847 10.3858 7.41106 8.0205C7.57699 7.54902 7.81417 7.19756 8.0781 6.80647L8.07812 6.80643C8.13377 6.72398 8.1906 6.63976 8.24821 6.55228C4.7831 5.80541 0.849198 7.41736 0.00937601 9.92931C0.059369 9.94197 0.109362 9.95291 0.159068 9.96379C0.241204 9.98177 0.322556 9.99958 0.401829 10.0247C1.61535 10.4156 2.57304 11.2793 2.57706 12.6253C2.58912 16.6968 2.5918 20.7683 2.57304 24.8398V24.9016C2.57036 25.4712 2.56635 26.081 2.31052 26.6035C2.13103 26.9689 1.83234 27.2685 1.48677 27.4847C1.2604 27.6271 1.01261 27.7373 0.759456 27.8219C0.697843 27.8434 0.00535772 28.0556 0 28.0395C0.849198 30.5904 5.30548 32.3757 8.2616 31.3615C7.10701 30.0867 6.76144 28.5446 6.75742 26.8897C6.75206 25.1609 6.74938 23.4307 6.75608 21.6992C6.7601 20.7764 7.00522 20.5332 7.94817 20.5332C11.5298 20.5319 15.1101 20.5319 18.6891 20.5319C22.268 20.5319 25.8483 20.5319 29.4299 20.5332C30.3716 20.5332 30.618 20.775 30.622 21.6992C30.6274 23.4307 30.6261 25.1595 30.6194 26.8897C30.6153 28.5433 30.2684 30.0867 29.1152 31.3615C32.0713 32.3757 36.5276 30.5918 37.3768 28.0395C37.3714 28.0556 36.6789 27.8434 36.6173 27.8219C36.3642 27.7373 36.1164 27.6271 35.89 27.4847H35.8887ZM23.065 17.4813C21.6063 17.4652 20.1464 17.4611 18.6877 17.4638C17.2291 17.4611 15.7691 17.4652 14.3105 17.4813C13.6702 17.4893 13.5229 17.2852 13.5269 16.6713C13.5384 14.9151 13.5395 13.159 13.5406 11.4029V11.4029C13.5419 9.2771 13.5433 7.1515 13.5631 5.02631C13.5671 4.66899 13.8122 4.11556 14.0801 4.01615C14.3413 3.91944 14.8677 4.19884 15.1168 4.46481C15.9975 5.40551 16.8497 6.374 17.7316 7.37622L17.7317 7.37636C18.0449 7.73225 18.3618 8.0924 18.685 8.45706L18.6891 8.45304L18.6931 8.45706C19.0191 8.08923 19.3386 7.726 19.6544 7.36709L19.6544 7.36703C20.5331 6.36808 21.3824 5.40263 22.2613 4.46481C22.5104 4.19884 23.0368 3.91809 23.298 4.01615C23.5659 4.11556 23.811 4.66899 23.8151 5.02631C23.8346 7.12333 23.8358 9.21996 23.8369 11.3166V11.3173C23.8379 13.1018 23.8389 14.8864 23.8512 16.6713C23.8552 17.2852 23.7066 17.4893 23.0677 17.4813H23.065ZM69.5767 18.7169C69.5767 13.0939 73.6981 9.77729 80.2398 9.77729C86.7816 9.77729 90.903 13.0939 90.903 18.7169C90.903 24.3399 86.7816 27.6565 80.2398 27.6565C73.6981 27.6565 69.5767 24.3399 69.5767 18.7169ZM73.4824 18.7155C73.4824 22.3209 76.0702 24.3399 80.2398 24.3399C84.3854 24.3399 86.9973 22.3196 86.9973 18.7155C86.9973 15.1115 84.3854 13.0925 80.2398 13.0925C76.0943 13.0925 73.4824 15.1101 73.4824 18.7155ZM51.844 16.9142H63.2746V10.3065H67.1081V27.1272H63.2746V20.2791H51.844V27.1272H48.0105V10.3065H51.844V16.9142ZM108.109 18.909C108.109 22.2726 106.144 24.2915 102.527 24.2915C98.9088 24.2915 96.9439 22.2726 96.9439 18.909V10.3065H93.1104V19.1978C93.1104 24.2445 96.4416 27.6565 102.528 27.6565C108.614 27.6565 111.945 24.2445 111.945 19.1978V10.3065H108.112V18.909H108.109ZM124.052 16.7464L124.355 16.7705L124.353 16.7731C129.696 17.2057 133.458 18.3354 133.458 22.0361C133.458 25.3514 130.32 27.6591 124.377 27.6591C120.135 27.6591 116.684 26.4569 114.121 24.27L116.325 21.6506C118.387 23.5487 121.07 24.4379 124.473 24.4379C127.877 24.4379 129.602 23.7905 129.602 22.3961C129.602 21.0018 127.877 20.6176 124.019 20.2805C119.227 19.8721 114.77 18.7182 114.77 15.2095C114.77 11.7009 118.509 9.77863 123.684 9.77863C127.35 9.77863 130.514 10.6921 132.646 12.3497L130.538 15.0175C128.692 13.6003 126.415 13.0227 123.684 12.9985C121.407 12.9743 118.628 13.3827 118.628 14.9207C118.628 16.3179 120.879 16.4958 124.052 16.7464ZM139.907 20.2066H150.954V16.9867H139.907V13.5264H153.134V10.3065H136.097V27.1272H153.374V23.9073H139.907V20.2066ZM162.24 18.7169C162.24 13.0939 166.361 9.77729 172.903 9.77729C179.445 9.77729 183.566 13.0939 183.566 18.7169C183.566 24.3399 179.445 27.6565 172.903 27.6565C166.361 27.6565 162.24 24.3399 162.24 18.7169ZM166.145 18.7155C166.145 22.3209 168.733 24.3399 172.903 24.3399C177.048 24.3399 179.66 22.3196 179.66 18.7155C179.66 15.1115 177.048 13.0925 172.903 13.0925C168.757 13.0925 166.145 15.1101 166.145 18.7155ZM186.538 27.1272H190.373V20.8312H201.443V17.5146H190.373V13.6218H203.505V10.3065H186.538V27.1272ZM216.635 10.3065L223.729 19.1978L230.821 10.3065H234.918V27.1272H231.085V15.4245L223.729 24.4366H223.537L216.18 15.4245V27.1272H212.467V10.3065H216.635ZM248.052 9.77729C241.51 9.77729 237.388 13.0939 237.388 18.7169C237.388 24.3399 241.51 27.6565 248.052 27.6565C254.593 27.6565 258.715 24.3399 258.715 18.7169C258.715 13.0939 254.593 9.77729 248.052 9.77729ZM248.052 24.3399C243.882 24.3399 241.294 22.3209 241.294 18.7155C241.294 15.1101 243.906 13.0925 248.052 13.0925C252.197 13.0925 254.809 15.1115 254.809 18.7155C254.809 22.3196 252.197 24.3399 248.052 24.3399ZM272.78 10.3065C276.877 10.3065 279.969 12.2046 279.969 15.857C279.969 18.7169 278.076 20.4954 275.297 21.1442L280.472 27.1286H275.896L271.079 21.4088H265.017V27.1286H261.206V10.3065H272.78ZM264.993 13.5264V18.236H272.564C274.578 18.236 276.063 17.7551 276.063 15.8812C276.063 14.0073 274.578 13.5264 272.564 13.5264H264.993ZM286.871 23.9073V20.2066H297.917V16.9867H286.871V13.5264H300.098V10.3065H283.06V27.1272H300.338V23.9073H286.871ZM13.5403 21.1952L13.5229 32.6441L13.5202 32.6427C13.484 34.7907 14.2381 36.3596 15.9647 37.5431L16.0141 37.5772C16.0974 37.6347 16.2239 37.7221 16.3638 37.8131C16.1736 37.856 16.0062 37.8856 15.8629 37.899C15.4128 37.9393 14.9587 37.9581 14.506 37.9608C13.6836 37.9662 12.8491 37.9178 12.0281 37.8413C11.2137 37.766 10.3966 37.621 9.64657 37.2852C9.07329 37.0299 8.55226 36.6659 8.09551 36.236C7.54367 35.7189 7.08692 35.109 6.70786 34.4562C6.81008 34.4274 6.89287 34.4048 6.96389 34.3854C7.06875 34.3568 7.14796 34.3351 7.22622 34.3111C8.48528 33.9269 9.36127 33.0619 9.36663 31.6971C9.38002 28.4745 9.38538 25.2506 9.35993 22.0267C9.35457 21.4048 9.46575 21.1751 10.1743 21.1791C10.5193 21.1808 10.8647 21.1831 11.2138 21.1854C11.9613 21.1903 12.7259 21.1952 13.5403 21.1952ZM28.0155 22.0267C27.9901 25.2493 27.9954 28.4732 28.0088 31.6971L28.0075 31.6984C28.0128 33.0632 28.8888 33.9296 30.1479 34.3125C30.2261 34.3365 30.3053 34.3581 30.4101 34.3867C30.4812 34.4061 30.564 34.4288 30.6662 34.4575C30.2858 35.109 29.8291 35.7202 29.2786 36.2374C28.8218 36.6659 28.3008 37.0299 27.7275 37.2865C26.9761 37.6223 26.1604 37.7674 25.346 37.8426C24.5263 37.9192 23.6905 37.9675 22.8681 37.9622C22.414 37.9595 21.9613 37.942 21.5099 37.9004C21.3666 37.8869 21.2005 37.8587 21.0089 37.8144C21.1488 37.7234 21.2754 37.636 21.3587 37.5785C21.3775 37.5655 21.394 37.5541 21.4081 37.5444C23.136 36.3596 23.8901 34.7907 23.8526 32.6441L23.8351 21.1952C24.6495 21.1952 25.4141 21.1903 26.1615 21.1854C26.5107 21.1831 26.8561 21.1808 27.2011 21.1791C27.9097 21.1751 28.0209 21.4035 28.0155 22.0267Z" fill="white"/>
</svg>
