<svg width="20" height="20" viewBox="0 0 20 20" fill="none" xmlns="http://www.w3.org/2000/svg">
<path d="M0 10C0 4.47715 4.47715 0 10 0C15.5228 0 20 4.47715 20 10C20 15.5228 15.5228 20 10 20C4.47715 20 0 15.5228 0 10Z" fill="#E8FFF4"/>
<g clip-path="url(#clip0_1730_1657)">
<path d="M9.15647 16.5L8.01448 8.865C7.9585 8.505 8.06486 8.1875 8.33356 7.9125C8.60227 7.6375 8.93815 7.5 9.34121 7.5H11.6588C12.0618 7.5 12.3977 7.6375 12.6664 7.9125C12.9351 8.1875 13.0415 8.505 12.9855 8.865L11.8435 16.5H9.15647ZM10.5 6.9C10.1305 6.9 9.81424 6.7825 9.55114 6.5475C9.28803 6.3125 9.15647 6.03 9.15647 5.7C9.15647 5.37 9.28803 5.0875 9.55114 4.8525C9.81424 4.6175 10.1305 4.5 10.5 4.5C10.8695 4.5 11.1858 4.6175 11.4489 4.8525C11.712 5.0875 11.8435 5.37 11.8435 5.7C11.8435 6.03 11.712 6.3125 11.4489 6.5475C11.1858 6.7825 10.8695 6.9 10.5 6.9Z" fill="#2E8A62"/>
</g>
<defs>
<clipPath id="clip0_1730_1657">
<rect width="12" height="12" fill="white" transform="translate(4 4)"/>
</clipPath>
</defs>
</svg>
