<svg width="16" height="16" viewBox="0 0 16 16" fill="none" xmlns="http://www.w3.org/2000/svg">
<mask id="mask0_1793_158" style="mask-type:alpha" maskUnits="userSpaceOnUse" x="0" y="0" width="16" height="16">
<rect width="15.2" height="15.2" fill="#D9D9D9"/>
</mask>
<g mask="url(#mask0_1793_158)">
<path d="M12.6354 13.2999C11.3159 13.2999 10.0123 13.0123 8.72456 12.437C7.43678 11.8617 6.26511 11.0463 5.20956 9.99074C4.154 8.93518 3.33859 7.76351 2.76331 6.47574C2.18803 5.18796 1.90039 3.88435 1.90039 2.5649C1.90039 2.3749 1.96372 2.21657 2.09039 2.0899C2.21706 1.96324 2.37539 1.8999 2.56539 1.8999H5.13039C5.27817 1.8999 5.41011 1.95004 5.52622 2.05032C5.64233 2.1506 5.71095 2.26935 5.73206 2.40657L6.14372 4.62324C6.16484 4.79212 6.15956 4.93462 6.12789 5.05074C6.09622 5.16685 6.03817 5.26712 5.95372 5.35157L4.41789 6.90324C4.629 7.29379 4.8797 7.67115 5.16997 8.03532C5.46025 8.39949 5.77956 8.75046 6.12789 9.08824C6.45511 9.41546 6.79817 9.71893 7.15706 9.99865C7.51595 10.2784 7.89595 10.5343 8.29706 10.7666L9.78539 9.27824C9.88039 9.18324 10.0044 9.11199 10.1575 9.06449C10.3105 9.01699 10.4609 9.00379 10.6087 9.0249L12.7937 9.46824C12.9415 9.51046 13.0629 9.58699 13.1579 9.69782C13.2529 9.80865 13.3004 9.93268 13.3004 10.0699V12.6349C13.3004 12.8249 13.2371 12.9832 13.1104 13.1099C12.9837 13.2366 12.8254 13.2999 12.6354 13.2999Z" fill="#2B4B6D"/>
</g>
</svg>
