<svg width="35" height="36" viewBox="0 0 35 36" fill="none" xmlns="http://www.w3.org/2000/svg">
<path d="M17.4924 35.5596C17.4882 35.5596 17.4841 35.5596 17.4794 35.5596C15.1375 35.5579 12.8472 35.0882 10.6727 34.1634C8.4983 33.2387 6.56906 31.9142 4.93918 30.2265C3.36472 28.5966 2.13455 26.6987 1.28224 24.5851C0.429936 22.4715 -0.00125682 20.2492 2.7515e-06 17.9794C0.00168217 15.6294 0.469822 13.3313 1.3914 11.1495C2.31299 8.96766 3.63302 7.03185 5.31496 5.39642C6.93938 3.81661 8.83082 2.58224 10.9372 1.72703C13.0395 0.87351 15.25 0.44043 17.5076 0.44043C17.5118 0.44043 17.516 0.44043 17.5206 0.44043C19.8625 0.442115 22.1528 0.911847 24.3273 1.83657C26.5017 2.76129 28.4309 4.08581 30.0608 5.77347C31.6353 7.40342 32.8655 9.30131 33.7178 11.4149C34.5701 13.5285 35.0013 15.7508 35 18.0206C34.9983 20.3706 34.5302 22.6687 33.6086 24.8505C32.687 27.0323 31.367 28.9682 29.6851 30.6036C28.0606 32.1834 26.1692 33.4178 24.0628 34.273C21.9605 35.1265 19.75 35.5596 17.4924 35.5596ZM17.5076 0.861714C15.3042 0.861714 13.1465 1.28426 11.0947 2.11756C9.03865 2.95255 7.19255 4.15743 5.60718 5.69933C3.96596 7.29558 2.67784 9.18462 1.77809 11.3142C0.87834 13.4438 0.421538 15.6867 0.419858 17.9802C0.418179 20.1953 0.839291 22.3645 1.67145 24.4275C2.5036 26.4906 3.70439 28.343 5.24106 29.9337C6.8319 31.5805 8.71452 32.873 10.8369 33.7759C12.9593 34.6787 15.1946 35.137 17.4803 35.1387C17.4845 35.1387 17.4887 35.1387 17.4929 35.1387C19.6963 35.1387 21.8539 34.7162 23.9057 33.8833C25.9618 33.0483 27.8079 31.8434 29.3933 30.3015C31.0345 28.7053 32.3226 26.8162 33.2223 24.6866C34.1221 22.557 34.5789 20.3141 34.5806 18.0206C34.5822 15.8055 34.1611 13.6363 33.329 11.5733C32.4968 9.51027 31.296 7.65788 29.7594 6.06711C28.1685 4.42031 26.2859 3.12781 24.1635 2.22499C22.0412 1.32218 19.8059 0.863821 17.5202 0.862136C17.516 0.862136 17.5118 0.862136 17.5076 0.862136V0.861714Z" fill="#F3EFE9"/>
<path d="M28.8248 17.4216C28.554 17.4216 28.2799 17.3517 28.0292 17.2043C21.8065 13.5467 14.0165 12.7568 7.19093 15.0928C6.36675 15.3746 5.47037 14.9331 5.1899 14.1061C4.9086 13.2792 5.34902 12.3801 6.1732 12.0983C13.8545 9.46947 22.621 10.358 29.6234 14.4743C30.3749 14.9158 30.6269 15.8852 30.1868 16.6393C29.8934 17.1419 29.3664 17.4221 28.8248 17.4221V17.4216Z" fill="#F3EFE9"/>
<path d="M26.2832 22.4704C26.0497 22.4704 25.8129 22.411 25.5958 22.2854C20.4619 19.3187 14.0313 18.6619 8.39478 20.5291C7.67011 20.7688 6.89086 20.374 6.65196 19.6486C6.41306 18.9227 6.80605 18.1395 7.52946 17.8998C13.9012 15.7905 21.1693 16.5323 26.9726 19.8862C27.633 20.2679 27.8597 21.1142 27.4797 21.7769C27.2245 22.2218 26.7601 22.4708 26.2827 22.4708L26.2832 22.4704Z" fill="#F3EFE9"/>
<path d="M24.1046 27.1513C23.8875 27.1513 23.6683 27.0893 23.4739 26.9604C19.7641 24.4972 14.3753 23.9032 9.05904 25.373C8.45025 25.5424 7.81921 25.1822 7.65127 24.5709C7.48333 23.9592 7.84146 23.3268 8.45067 23.1583C14.3954 21.5149 20.4837 22.2201 24.7373 25.0444C25.2642 25.3945 25.4091 26.1073 25.0602 26.6365C24.8397 26.9705 24.4757 27.1513 24.1041 27.1513H24.1046Z" fill="#F3EFE9"/>
</svg>
