<svg width="24" height="24" viewBox="0 0 24 24" fill="none" xmlns="http://www.w3.org/2000/svg">
<mask id="mask0_1824_158" style="mask-type:alpha" maskUnits="userSpaceOnUse" x="0" y="0" width="24" height="24">
<rect width="24" height="24" fill="#D9D9D9"/>
</mask>
<g mask="url(#mask0_1824_158)">
<path d="M4.20012 20.9749C3.85012 21.0582 3.54595 20.9707 3.28762 20.7124C3.02928 20.4541 2.94178 20.1499 3.02512 19.7999L3.90012 15.5499L8.45012 20.0999L4.20012 20.9749ZM10.0751 18.8749L5.12512 13.9249L15.4501 3.5999C15.8335 3.21657 16.3084 3.0249 16.8751 3.0249C17.4418 3.0249 17.9168 3.21657 18.3001 3.5999L20.4001 5.6999C20.7834 6.08324 20.9751 6.55824 20.9751 7.1249C20.9751 7.69157 20.7834 8.16657 20.4001 8.5499L10.0751 18.8749Z" fill="#946A49"/>
<path d="M4.20012 20.9749C3.85012 21.0582 3.54595 20.9707 3.28762 20.7124C3.02928 20.4541 2.94178 20.1499 3.02512 19.7999L3.90012 15.5499L8.45012 20.0999L4.20012 20.9749ZM10.0751 18.8749L5.12512 13.9249L15.4501 3.5999C15.8335 3.21657 16.3084 3.0249 16.8751 3.0249C17.4418 3.0249 17.9168 3.21657 18.3001 3.5999L20.4001 5.6999C20.7834 6.08324 20.9751 6.55824 20.9751 7.1249C20.9751 7.69157 20.7834 8.16657 20.4001 8.5499L10.0751 18.8749Z" fill="black" fill-opacity="0.2"/>
</g>
</svg>
