<svg width="256" height="256" viewBox="0 0 256 256" fill="none" xmlns="http://www.w3.org/2000/svg">
<path d="M108.773 186.728L108.851 135.268C103.481 135.268 98.592 135.22 93.7215 135.196C90.5367 135.177 90.037 136.21 90.0611 139.005C90.1755 153.496 90.1514 167.987 90.0912 182.471C90.0671 188.606 86.1297 192.494 80.4705 194.221C79.8805 194.402 79.2785 194.553 78.1406 194.873C79.8444 197.807 81.8974 200.548 84.3778 202.873C86.4308 204.805 88.7727 206.441 91.3494 207.588C94.7209 209.098 98.3933 209.75 102.054 210.088C105.744 210.432 109.495 210.65 113.192 210.625C115.226 210.613 117.267 210.529 119.29 210.348C119.934 210.287 120.687 210.154 121.542 209.961C120.771 209.46 120.091 208.983 119.748 208.748C111.987 203.428 108.598 196.376 108.761 186.722L108.773 186.728Z" fill="#464139"/>
<path d="M209.311 163.538C207.764 162.566 206.415 161.219 205.609 159.577C204.459 157.222 204.441 154.487 204.429 151.927C204.429 151.836 204.429 151.74 204.429 151.649C204.344 133.349 204.356 115.048 204.411 96.7478C204.429 90.6979 208.739 86.8096 214.188 85.0586C214.76 84.8775 215.356 84.7809 215.952 84.63C212.177 73.3393 194.495 66.094 178.926 69.451C180.413 71.7091 181.786 73.4782 182.689 76.0503C187.066 87.6488 186.091 101.24 185.651 113.394C185.615 114.312 185.579 115.241 185.272 116.105C184.501 118.242 182.298 118.538 180.305 118.538C178.499 118.538 176.693 118.556 174.893 118.556C174.832 118.556 174.778 118.544 174.706 118.526C174.206 118.381 173.869 117.904 173.869 117.379V113.394C173.875 99.1206 174.098 84.8473 173.791 70.574C173.64 63.5219 176.247 57.6713 185.681 55.8841C181.961 48.5482 176.091 44.0924 168.595 41.6954C152.238 36.4727 140.365 43.7059 132.003 58.106C123.635 43.6999 111.762 36.4727 95.4048 41.6954C87.9094 44.0924 82.0395 48.5482 78.3189 55.8841C87.7529 57.6713 90.3597 63.5219 90.2092 70.574C89.8962 84.8473 90.1189 99.1206 90.1309 113.394V117.379C90.1309 117.904 89.7938 118.381 89.2941 118.526C89.2279 118.544 89.1677 118.556 89.1075 118.556C87.3134 118.556 85.5012 118.538 83.6951 118.538C81.7023 118.538 79.4929 118.248 78.7283 116.105C78.4212 115.241 78.3851 114.312 78.349 113.394C77.9095 101.234 76.9342 87.6488 81.311 76.0503C82.2141 73.4842 83.5867 71.7091 85.0738 69.451C69.4989 66.094 51.817 73.3393 48.0421 84.63C48.6382 84.7809 49.2342 84.8775 49.8061 85.0586C55.2606 86.8156 59.5652 90.6979 59.5833 96.7478C59.6375 115.048 59.6495 133.349 59.5652 151.649C59.5652 151.74 59.5652 151.83 59.5652 151.927C59.5532 154.487 59.5351 157.228 58.3852 159.577C57.5785 161.219 56.2359 162.566 54.6827 163.538C53.6652 164.178 52.5514 164.673 51.4136 165.053C51.1366 165.15 48.0241 166.104 48 166.031C51.817 177.497 71.8469 185.521 85.134 180.963C79.9444 175.233 78.3911 168.301 78.3731 160.863C78.349 153.092 78.3369 145.316 78.367 137.533C78.3851 133.385 79.4868 132.292 83.7252 132.292C99.8238 132.286 115.916 132.286 132.003 132.286C148.09 132.286 164.182 132.286 180.281 132.292C184.513 132.292 185.621 133.379 185.639 137.533C185.663 145.316 185.657 153.086 185.627 160.863C185.609 168.295 184.05 175.233 178.866 180.963C192.153 185.521 212.183 177.503 216 166.031C215.976 166.104 212.863 165.15 212.586 165.053C211.449 164.673 210.335 164.178 209.317 163.538H209.311ZM151.672 118.574C145.116 118.502 138.553 118.484 131.997 118.496C125.441 118.484 118.878 118.502 112.322 118.574C109.444 118.611 108.782 117.693 108.8 114.934C108.915 97.4844 108.8 80.0352 108.963 62.5921C108.981 60.986 110.083 58.4985 111.287 58.0517C112.461 57.617 114.827 58.8728 115.947 60.0683C121.311 65.7982 126.44 71.7574 131.985 78.0126C131.985 78.0126 131.991 78.0065 132.003 77.9945C132.003 77.9945 132.009 78.0005 132.021 78.0126C137.566 71.7574 142.689 65.7982 148.059 60.0683C149.179 58.8728 151.545 57.6109 152.719 58.0517C153.923 58.4985 155.025 60.986 155.043 62.5921C155.206 80.0413 155.085 97.4844 155.206 114.934C155.224 117.693 154.556 118.611 151.684 118.574H151.672Z" fill="#464139"/>
<path d="M173.9 182.471C173.84 167.981 173.816 153.49 173.93 139.005C173.954 136.204 173.455 135.177 170.27 135.196C165.399 135.22 160.511 135.268 155.141 135.268L155.219 186.728C155.387 196.376 151.998 203.428 144.232 208.754C143.888 208.989 143.208 209.466 142.438 209.967C143.298 210.167 144.045 210.293 144.689 210.354C146.718 210.541 148.753 210.619 150.794 210.631C154.49 210.656 158.247 210.438 161.932 210.094C165.592 209.756 169.258 209.104 172.636 207.594C175.213 206.441 177.555 204.805 179.608 202.879C182.082 200.554 184.135 197.807 185.845 194.879C184.707 194.559 184.105 194.408 183.515 194.227C177.856 192.506 173.918 188.612 173.894 182.477L173.9 182.471Z" fill="#464139"/>
</svg>
