<svg width="24" height="24" viewBox="0 0 24 24" fill="none" xmlns="http://www.w3.org/2000/svg">
<path d="M0 12C0 5.37258 5.37258 0 12 0C18.6274 0 24 5.37258 24 12C24 18.6274 18.6274 24 12 24C5.37258 24 0 18.6274 0 12Z" fill="#FFF4E8"/>
<path d="M12 8.0625C11.5771 8.0625 11.2161 7.91302 10.9172 7.61406C10.6182 7.3151 10.4688 6.95417 10.4688 6.53125C10.4688 6.10833 10.6182 5.7474 10.9172 5.44844C11.2161 5.14948 11.5771 5 12 5C12.4229 5 12.7839 5.14948 13.0828 5.44844C13.3818 5.7474 13.5312 6.10833 13.5312 6.53125C13.5312 6.95417 13.3818 7.3151 13.0828 7.61406C12.7839 7.91302 12.4229 8.0625 12 8.0625ZM10.25 19V15.5H8.5L10.5781 9.92188C10.6948 9.63021 10.8807 9.39323 11.1359 9.21094C11.3911 9.02865 11.6792 8.9375 12 8.9375C12.3208 8.9375 12.6089 9.02865 12.8641 9.21094C13.1193 9.39323 13.3052 9.63021 13.4219 9.92188L15.5 15.5H13.75V19H10.25Z" fill="#C87A33"/>
</svg>
