<svg width="24" height="24" viewBox="0 0 24 24" fill="none" xmlns="http://www.w3.org/2000/svg">
<path d="M0 12C0 5.37258 5.37258 0 12 0C18.6274 0 24 5.37258 24 12C24 18.6274 18.6274 24 12 24C5.37258 24 0 18.6274 0 12Z" fill="#FCE7F3"/>
<path d="M12 9.08301V17.2497" stroke="#831843" stroke-linecap="round" stroke-linejoin="round"/>
<path d="M6.75008 15.5C6.59537 15.5 6.447 15.4385 6.3376 15.3291C6.22821 15.2197 6.16675 15.0714 6.16675 14.9167V7.33333C6.16675 7.17862 6.22821 7.03025 6.3376 6.92085C6.447 6.81146 6.59537 6.75 6.75008 6.75H9.66675C10.2856 6.75 10.8791 6.99583 11.3167 7.43342C11.7542 7.871 12.0001 8.46449 12.0001 9.08333C12.0001 8.46449 12.2459 7.871 12.6835 7.43342C13.1211 6.99583 13.7146 6.75 14.3334 6.75H17.2501C17.4048 6.75 17.5532 6.81146 17.6626 6.92085C17.772 7.03025 17.8334 7.17862 17.8334 7.33333V14.9167C17.8334 15.0714 17.772 15.2197 17.6626 15.3291C17.5532 15.4385 17.4048 15.5 17.2501 15.5H13.7501C13.286 15.5 12.8408 15.6844 12.5126 16.0126C12.1845 16.3408 12.0001 16.7859 12.0001 17.25C12.0001 16.7859 11.8157 16.3408 11.4875 16.0126C11.1593 15.6844 10.7142 15.5 10.2501 15.5H6.75008Z" stroke="#831843" stroke-linecap="round" stroke-linejoin="round"/>
</svg>
