<svg width="35" height="36" viewBox="0 0 35 36" fill="none" xmlns="http://www.w3.org/2000/svg">
<path d="M17.5 35.5596C15.1378 35.5596 12.8457 35.0954 10.6882 34.1795C8.60425 33.2952 6.73267 32.0291 5.12578 30.4163C3.51889 28.8036 2.25713 26.926 1.37538 24.835C0.462999 22.6701 0 20.3703 0 18C0 15.6297 0.462573 13.3299 1.37538 11.165C2.2567 9.07397 3.51847 7.19601 5.12578 5.58366C6.73309 3.9713 8.60425 2.70524 10.6882 1.8205C12.8457 0.905007 15.1378 0.44043 17.5 0.44043C19.8622 0.44043 22.1543 0.90458 24.3118 1.8205C26.3957 2.70482 28.2673 3.97088 29.8742 5.58366C31.4811 7.19644 32.7429 9.07397 33.6246 11.165C34.537 13.3299 35 15.6297 35 18C35 20.3703 34.5374 22.6701 33.6246 24.835C32.7433 26.926 31.4815 28.804 29.8742 30.4163C28.2669 32.0287 26.3957 33.2948 24.3118 34.1795C22.1543 35.095 19.8622 35.5596 17.5 35.5596ZM17.5 0.868285C15.1948 0.868285 12.9589 1.32133 10.8541 2.21462C8.82085 3.07759 6.99481 4.3129 5.42707 5.8864C3.85891 7.4599 2.62779 9.29216 1.76775 11.3319C0.877491 13.4439 0.425979 15.6878 0.425979 18.0004C0.425979 20.3131 0.877491 22.557 1.76775 24.6689C2.62779 26.7091 3.85891 28.5414 5.42707 30.1144C6.99523 31.6879 8.82128 32.9233 10.8541 33.7862C12.9589 34.6795 15.1952 35.1326 17.5 35.1326C19.8048 35.1326 22.0411 34.6795 24.1459 33.7862C26.1791 32.9233 28.0052 31.6879 29.5734 30.1144C31.1415 28.5409 32.3726 26.7087 33.2327 24.6689C34.1229 22.557 34.5744 20.3131 34.5744 18.0004C34.5744 15.6878 34.1229 13.4439 33.2327 11.3319C32.3726 9.29174 31.1415 7.45947 29.5734 5.8864C28.0052 4.31333 26.1791 3.07759 24.1459 2.21462C22.0411 1.32133 19.8052 0.868285 17.5 0.868285Z" fill="#F3EFE9"/>
<path fill-rule="evenodd" clip-rule="evenodd" d="M26.5623 14.2288C26.5623 14.2288 26.5623 11.076 23.3256 11.076H11.0084C11.0084 11.076 7.77167 11.076 7.77167 14.2288V20.7712C7.77167 20.7712 7.77167 23.924 11.0084 23.924H23.3256C23.3256 23.924 26.5623 23.924 26.5623 20.7712V14.2288ZM11.0084 10H23.3256C26.5071 10 27.667 12.5287 27.667 14.2288V20.7712C27.667 23.8702 25.071 25 23.3256 25H11.0084C7.82691 25 6.66699 22.4713 6.66699 20.7712V14.2288C6.66699 11.1298 9.26299 10 11.0084 10ZM20.8199 17.5294L14.6668 14V21.0481L20.8199 17.5294Z" fill="#F3EFE9"/>
</svg>
